G75*
%MOIN*%
%OFA0B0*%
%FSLAX25Y25*%
%IPPOS*%
%LPD*%
%AMOC8*
5,1,8,0,0,1.08239X$1,22.5*
%
%ADD10C,0.05200*%
%ADD11C,0.06693*%
%ADD12C,0.05709*%
%ADD13C,0.05200*%
%ADD14C,0.06000*%
%ADD15C,0.01000*%
%ADD16C,0.01600*%
D10*
X0075921Y0049400D02*
X0075921Y0054600D01*
X0085921Y0054600D02*
X0085921Y0049400D01*
X0095921Y0049400D02*
X0095921Y0054600D01*
X0105921Y0054600D02*
X0105921Y0049400D01*
X0115921Y0049400D02*
X0115921Y0054600D01*
X0125921Y0054600D02*
X0125921Y0049400D01*
X0135921Y0049400D02*
X0135921Y0054600D01*
X0145921Y0054600D02*
X0145921Y0049400D01*
X0155921Y0049400D02*
X0155921Y0054600D01*
X0165921Y0054600D02*
X0165921Y0049400D01*
X0175921Y0049400D02*
X0175921Y0054600D01*
X0185921Y0054600D02*
X0185921Y0049400D01*
X0195921Y0049400D02*
X0195921Y0054600D01*
X0205921Y0054600D02*
X0205921Y0049400D01*
X0205921Y0079400D02*
X0205921Y0084600D01*
X0195921Y0084600D02*
X0195921Y0079400D01*
X0185921Y0079400D02*
X0185921Y0084600D01*
X0175921Y0084600D02*
X0175921Y0079400D01*
X0165921Y0079400D02*
X0165921Y0084600D01*
X0155921Y0084600D02*
X0155921Y0079400D01*
X0145921Y0079400D02*
X0145921Y0084600D01*
X0135921Y0084600D02*
X0135921Y0079400D01*
X0125921Y0079400D02*
X0125921Y0084600D01*
X0115921Y0084600D02*
X0115921Y0079400D01*
X0105921Y0079400D02*
X0105921Y0084600D01*
X0095921Y0084600D02*
X0095921Y0079400D01*
X0085921Y0079400D02*
X0085921Y0084600D01*
X0075921Y0084600D02*
X0075921Y0079400D01*
D11*
X0036315Y0078890D03*
X0036315Y0065110D03*
X0184032Y0021606D03*
X0197811Y0021606D03*
X0235528Y0065110D03*
X0235528Y0078890D03*
D12*
X0037421Y0026315D03*
X0037421Y0046000D03*
D13*
X0230921Y0044500D03*
X0240921Y0039500D03*
X0230921Y0034500D03*
X0240921Y0029500D03*
D14*
X0095921Y0030000D02*
X0095921Y0036000D01*
X0085921Y0036000D02*
X0085921Y0030000D01*
X0059921Y0030000D02*
X0059921Y0036000D01*
X0049921Y0036000D02*
X0049921Y0030000D01*
D15*
X0045921Y0062000D02*
X0045921Y0072000D01*
X0030921Y0072000D01*
X0030921Y0087000D01*
X0055921Y0087000D01*
X0070921Y0072000D01*
X0210921Y0072000D01*
X0225921Y0087000D01*
X0240921Y0087000D01*
X0240921Y0072000D01*
X0220921Y0072000D01*
X0220921Y0052000D01*
X0215921Y0057000D01*
X0205921Y0062000D01*
X0045921Y0062000D01*
X0045921Y0062917D02*
X0220921Y0062917D01*
X0220921Y0063915D02*
X0045921Y0063915D01*
X0045921Y0064914D02*
X0220921Y0064914D01*
X0220921Y0065912D02*
X0045921Y0065912D01*
X0045921Y0066911D02*
X0220921Y0066911D01*
X0220921Y0067909D02*
X0045921Y0067909D01*
X0045921Y0068908D02*
X0220921Y0068908D01*
X0220921Y0069906D02*
X0045921Y0069906D01*
X0045921Y0070905D02*
X0220921Y0070905D01*
X0220921Y0071903D02*
X0045921Y0071903D01*
X0039472Y0075193D02*
X0038855Y0074745D01*
X0038175Y0074398D01*
X0037450Y0074163D01*
X0036815Y0074062D01*
X0036815Y0078390D01*
X0036815Y0079390D01*
X0035815Y0079390D01*
X0035815Y0083717D01*
X0035180Y0083617D01*
X0034455Y0083381D01*
X0033775Y0083035D01*
X0033158Y0082586D01*
X0032618Y0082047D01*
X0032170Y0081430D01*
X0031824Y0080750D01*
X0031588Y0080025D01*
X0031487Y0079390D01*
X0035815Y0079390D01*
X0035815Y0078390D01*
X0031487Y0078390D01*
X0031588Y0077755D01*
X0031824Y0077029D01*
X0032170Y0076350D01*
X0032618Y0075733D01*
X0033158Y0075193D01*
X0033775Y0074745D01*
X0034455Y0074398D01*
X0035180Y0074163D01*
X0035815Y0074062D01*
X0035815Y0078390D01*
X0036815Y0078390D01*
X0041143Y0078390D01*
X0041042Y0077755D01*
X0040806Y0077029D01*
X0040460Y0076350D01*
X0040012Y0075733D01*
X0039472Y0075193D01*
X0039067Y0074899D02*
X0068023Y0074899D01*
X0069021Y0073900D02*
X0030921Y0073900D01*
X0030921Y0072902D02*
X0070020Y0072902D01*
X0067024Y0075897D02*
X0040131Y0075897D01*
X0040738Y0076896D02*
X0066026Y0076896D01*
X0065027Y0077894D02*
X0041064Y0077894D01*
X0041143Y0079390D02*
X0036815Y0079390D01*
X0036815Y0083717D01*
X0037450Y0083617D01*
X0038175Y0083381D01*
X0038855Y0083035D01*
X0039472Y0082586D01*
X0040012Y0082047D01*
X0040460Y0081430D01*
X0040806Y0080750D01*
X0041042Y0080025D01*
X0041143Y0079390D01*
X0041063Y0079891D02*
X0063030Y0079891D01*
X0064029Y0078893D02*
X0036815Y0078893D01*
X0036815Y0079891D02*
X0035815Y0079891D01*
X0035815Y0078893D02*
X0030921Y0078893D01*
X0030921Y0079891D02*
X0031567Y0079891D01*
X0031895Y0080890D02*
X0030921Y0080890D01*
X0030921Y0081888D02*
X0032503Y0081888D01*
X0033571Y0082887D02*
X0030921Y0082887D01*
X0030921Y0083885D02*
X0059036Y0083885D01*
X0060034Y0082887D02*
X0039059Y0082887D01*
X0040127Y0081888D02*
X0061033Y0081888D01*
X0062032Y0080890D02*
X0040735Y0080890D01*
X0036815Y0080890D02*
X0035815Y0080890D01*
X0035815Y0081888D02*
X0036815Y0081888D01*
X0036815Y0082887D02*
X0035815Y0082887D01*
X0030921Y0084884D02*
X0058037Y0084884D01*
X0057039Y0085882D02*
X0030921Y0085882D01*
X0030921Y0086881D02*
X0056040Y0086881D01*
X0036815Y0077894D02*
X0035815Y0077894D01*
X0035815Y0076896D02*
X0036815Y0076896D01*
X0036815Y0075897D02*
X0035815Y0075897D01*
X0035815Y0074899D02*
X0036815Y0074899D01*
X0033563Y0074899D02*
X0030921Y0074899D01*
X0030921Y0075897D02*
X0032499Y0075897D01*
X0031892Y0076896D02*
X0030921Y0076896D01*
X0030921Y0077894D02*
X0031566Y0077894D01*
X0180921Y0062000D02*
X0181032Y0030610D01*
X0184032Y0021606D01*
X0210921Y0021978D02*
X0245921Y0021978D01*
X0245921Y0022976D02*
X0210921Y0022976D01*
X0210921Y0023975D02*
X0245921Y0023975D01*
X0245921Y0024973D02*
X0210921Y0024973D01*
X0210921Y0025972D02*
X0238815Y0025972D01*
X0238772Y0025993D02*
X0239348Y0025700D01*
X0239961Y0025501D01*
X0240599Y0025400D01*
X0240621Y0025400D01*
X0240621Y0029200D01*
X0236821Y0029200D01*
X0236821Y0029177D01*
X0236922Y0028540D01*
X0237122Y0027926D01*
X0237415Y0027351D01*
X0237794Y0026829D01*
X0238250Y0026373D01*
X0238772Y0025993D01*
X0237691Y0026970D02*
X0210921Y0026970D01*
X0210921Y0027969D02*
X0220921Y0027969D01*
X0220921Y0027000D02*
X0230921Y0027000D01*
X0235921Y0032000D01*
X0237670Y0032000D01*
X0237415Y0031649D01*
X0237122Y0031074D01*
X0236922Y0030460D01*
X0236821Y0029823D01*
X0236821Y0029800D01*
X0240621Y0029800D01*
X0240621Y0029200D01*
X0241221Y0029200D01*
X0241221Y0025400D01*
X0241244Y0025400D01*
X0241881Y0025501D01*
X0242495Y0025700D01*
X0243070Y0025993D01*
X0243592Y0026373D01*
X0244049Y0026829D01*
X0244428Y0027351D01*
X0244721Y0027926D01*
X0244920Y0028540D01*
X0245021Y0029177D01*
X0245021Y0029200D01*
X0241221Y0029200D01*
X0241221Y0029800D01*
X0245021Y0029800D01*
X0245021Y0029823D01*
X0244920Y0030460D01*
X0244721Y0031074D01*
X0244428Y0031649D01*
X0244173Y0032000D01*
X0245921Y0032000D01*
X0245921Y0017000D01*
X0240921Y0012000D01*
X0215921Y0012000D01*
X0210921Y0017000D01*
X0210921Y0062000D01*
X0220921Y0057000D01*
X0220921Y0027000D01*
X0220921Y0028967D02*
X0210921Y0028967D01*
X0210921Y0029966D02*
X0220921Y0029966D01*
X0220921Y0030964D02*
X0210921Y0030964D01*
X0210921Y0031963D02*
X0220921Y0031963D01*
X0220921Y0032961D02*
X0210921Y0032961D01*
X0210921Y0033960D02*
X0220921Y0033960D01*
X0220921Y0034958D02*
X0210921Y0034958D01*
X0210921Y0035957D02*
X0220921Y0035957D01*
X0220921Y0036955D02*
X0210921Y0036955D01*
X0210921Y0037954D02*
X0220921Y0037954D01*
X0220921Y0038952D02*
X0210921Y0038952D01*
X0210921Y0039951D02*
X0220921Y0039951D01*
X0220921Y0040949D02*
X0210921Y0040949D01*
X0210921Y0041948D02*
X0220921Y0041948D01*
X0220921Y0042946D02*
X0210921Y0042946D01*
X0210921Y0043945D02*
X0220921Y0043945D01*
X0220921Y0044943D02*
X0210921Y0044943D01*
X0210921Y0045942D02*
X0220921Y0045942D01*
X0220921Y0046940D02*
X0210921Y0046940D01*
X0210921Y0047939D02*
X0220921Y0047939D01*
X0220921Y0048937D02*
X0210921Y0048937D01*
X0210921Y0049936D02*
X0220921Y0049936D01*
X0220921Y0050934D02*
X0210921Y0050934D01*
X0210921Y0051933D02*
X0220921Y0051933D01*
X0220921Y0052932D02*
X0210921Y0052932D01*
X0210921Y0053930D02*
X0220921Y0053930D01*
X0218991Y0053930D01*
X0217993Y0054929D02*
X0220921Y0054929D01*
X0210921Y0054929D01*
X0210921Y0055927D02*
X0220921Y0055927D01*
X0216994Y0055927D01*
X0215996Y0056926D02*
X0220921Y0056926D01*
X0210921Y0056926D01*
X0210921Y0057924D02*
X0219073Y0057924D01*
X0220921Y0057924D02*
X0214073Y0057924D01*
X0212076Y0058923D02*
X0220921Y0058923D01*
X0220921Y0059921D02*
X0210079Y0059921D01*
X0210921Y0059921D02*
X0215079Y0059921D01*
X0213082Y0060920D02*
X0210921Y0060920D01*
X0210921Y0061918D02*
X0211085Y0061918D01*
X0208082Y0060920D02*
X0220921Y0060920D01*
X0220921Y0061918D02*
X0206085Y0061918D01*
X0210921Y0058923D02*
X0217076Y0058923D01*
X0219990Y0052932D02*
X0220921Y0052932D01*
X0211823Y0072902D02*
X0240921Y0072902D01*
X0240921Y0073900D02*
X0212822Y0073900D01*
X0213820Y0074899D02*
X0232775Y0074899D01*
X0232988Y0074745D02*
X0233667Y0074398D01*
X0234393Y0074163D01*
X0235028Y0074062D01*
X0235028Y0078390D01*
X0236028Y0078390D01*
X0236028Y0079390D01*
X0240355Y0079390D01*
X0240255Y0080025D01*
X0240019Y0080750D01*
X0239673Y0081430D01*
X0239224Y0082047D01*
X0238685Y0082586D01*
X0238068Y0083035D01*
X0237388Y0083381D01*
X0236663Y0083617D01*
X0236028Y0083717D01*
X0236028Y0079390D01*
X0235028Y0079390D01*
X0235028Y0083717D01*
X0234393Y0083617D01*
X0233667Y0083381D01*
X0232988Y0083035D01*
X0232370Y0082586D01*
X0231831Y0082047D01*
X0231383Y0081430D01*
X0231036Y0080750D01*
X0230801Y0080025D01*
X0230700Y0079390D01*
X0235028Y0079390D01*
X0235028Y0078390D01*
X0230700Y0078390D01*
X0230801Y0077755D01*
X0231036Y0077029D01*
X0231383Y0076350D01*
X0231831Y0075733D01*
X0232370Y0075193D01*
X0232988Y0074745D01*
X0231711Y0075897D02*
X0214819Y0075897D01*
X0215817Y0076896D02*
X0231104Y0076896D01*
X0230778Y0077894D02*
X0216816Y0077894D01*
X0217814Y0078893D02*
X0235028Y0078893D01*
X0235028Y0079891D02*
X0236028Y0079891D01*
X0236028Y0078893D02*
X0240921Y0078893D01*
X0240355Y0078390D02*
X0240255Y0077755D01*
X0240019Y0077029D01*
X0239673Y0076350D01*
X0239224Y0075733D01*
X0238685Y0075193D01*
X0238068Y0074745D01*
X0237388Y0074398D01*
X0236663Y0074163D01*
X0236028Y0074062D01*
X0236028Y0078390D01*
X0240355Y0078390D01*
X0240277Y0077894D02*
X0240921Y0077894D01*
X0240921Y0076896D02*
X0239951Y0076896D01*
X0239344Y0075897D02*
X0240921Y0075897D01*
X0240921Y0074899D02*
X0238280Y0074899D01*
X0236028Y0074899D02*
X0235028Y0074899D01*
X0235028Y0075897D02*
X0236028Y0075897D01*
X0236028Y0076896D02*
X0235028Y0076896D01*
X0235028Y0077894D02*
X0236028Y0077894D01*
X0240276Y0079891D02*
X0240921Y0079891D01*
X0240921Y0080890D02*
X0239948Y0080890D01*
X0239340Y0081888D02*
X0240921Y0081888D01*
X0240921Y0082887D02*
X0238271Y0082887D01*
X0236028Y0082887D02*
X0235028Y0082887D01*
X0235028Y0081888D02*
X0236028Y0081888D01*
X0236028Y0080890D02*
X0235028Y0080890D01*
X0231716Y0081888D02*
X0220810Y0081888D01*
X0219811Y0080890D02*
X0231107Y0080890D01*
X0230779Y0079891D02*
X0218813Y0079891D01*
X0221808Y0082887D02*
X0232784Y0082887D01*
X0240921Y0083885D02*
X0222807Y0083885D01*
X0223805Y0084884D02*
X0240921Y0084884D01*
X0240921Y0085882D02*
X0224804Y0085882D01*
X0225802Y0086881D02*
X0240921Y0086881D01*
X0237643Y0031963D02*
X0235884Y0031963D01*
X0234886Y0030964D02*
X0237086Y0030964D01*
X0236844Y0029966D02*
X0233887Y0029966D01*
X0232889Y0028967D02*
X0236855Y0028967D01*
X0237108Y0027969D02*
X0231890Y0027969D01*
X0240621Y0027969D02*
X0241221Y0027969D01*
X0241221Y0028967D02*
X0240621Y0028967D01*
X0244735Y0027969D02*
X0245921Y0027969D01*
X0245921Y0028967D02*
X0244988Y0028967D01*
X0244999Y0029966D02*
X0245921Y0029966D01*
X0245921Y0030964D02*
X0244757Y0030964D01*
X0244200Y0031963D02*
X0245921Y0031963D01*
X0245921Y0026970D02*
X0244151Y0026970D01*
X0243028Y0025972D02*
X0245921Y0025972D01*
X0241221Y0025972D02*
X0240621Y0025972D01*
X0240621Y0026970D02*
X0241221Y0026970D01*
X0245921Y0020979D02*
X0210921Y0020979D01*
X0210921Y0019981D02*
X0245921Y0019981D01*
X0245921Y0018982D02*
X0210921Y0018982D01*
X0210921Y0017984D02*
X0245921Y0017984D01*
X0245906Y0016985D02*
X0210936Y0016985D01*
X0211935Y0015987D02*
X0244908Y0015987D01*
X0243909Y0014988D02*
X0212933Y0014988D01*
X0213932Y0013990D02*
X0242911Y0013990D01*
X0241912Y0012991D02*
X0214930Y0012991D01*
D16*
X0095921Y0033000D02*
X0095921Y0052000D01*
X0085921Y0052000D02*
X0085921Y0033000D01*
X0050921Y0033000D02*
X0050921Y0077000D01*
X0036315Y0077000D01*
X0036315Y0078890D01*
X0049921Y0033000D02*
X0050921Y0033000D01*
M02*
