G75*
%MOIN*%
%OFA0B0*%
%FSLAX25Y25*%
%IPPOS*%
%LPD*%
%AMOC8*
5,1,8,0,0,1.08239X$1,22.5*
%
%ADD10C,0.06000*%
%ADD11C,0.07493*%
%ADD12C,0.06509*%
%ADD13C,0.06000*%
%ADD14C,0.06800*%
D10*
X0075921Y0049400D02*
X0075921Y0054600D01*
X0085921Y0054600D02*
X0085921Y0049400D01*
X0095921Y0049400D02*
X0095921Y0054600D01*
X0105921Y0054600D02*
X0105921Y0049400D01*
X0115921Y0049400D02*
X0115921Y0054600D01*
X0125921Y0054600D02*
X0125921Y0049400D01*
X0135921Y0049400D02*
X0135921Y0054600D01*
X0145921Y0054600D02*
X0145921Y0049400D01*
X0155921Y0049400D02*
X0155921Y0054600D01*
X0165921Y0054600D02*
X0165921Y0049400D01*
X0175921Y0049400D02*
X0175921Y0054600D01*
X0185921Y0054600D02*
X0185921Y0049400D01*
X0195921Y0049400D02*
X0195921Y0054600D01*
X0205921Y0054600D02*
X0205921Y0049400D01*
X0205921Y0079400D02*
X0205921Y0084600D01*
X0195921Y0084600D02*
X0195921Y0079400D01*
X0185921Y0079400D02*
X0185921Y0084600D01*
X0175921Y0084600D02*
X0175921Y0079400D01*
X0165921Y0079400D02*
X0165921Y0084600D01*
X0155921Y0084600D02*
X0155921Y0079400D01*
X0145921Y0079400D02*
X0145921Y0084600D01*
X0135921Y0084600D02*
X0135921Y0079400D01*
X0125921Y0079400D02*
X0125921Y0084600D01*
X0115921Y0084600D02*
X0115921Y0079400D01*
X0105921Y0079400D02*
X0105921Y0084600D01*
X0095921Y0084600D02*
X0095921Y0079400D01*
X0085921Y0079400D02*
X0085921Y0084600D01*
X0075921Y0084600D02*
X0075921Y0079400D01*
D11*
X0036315Y0078890D03*
X0036315Y0065110D03*
X0184032Y0021606D03*
X0197811Y0021606D03*
X0235528Y0065110D03*
X0235528Y0078890D03*
D12*
X0037421Y0026315D03*
X0037421Y0046000D03*
D13*
X0230921Y0044500D03*
X0240921Y0039500D03*
X0230921Y0034500D03*
X0240921Y0029500D03*
D14*
X0095921Y0030000D02*
X0095921Y0036000D01*
X0085921Y0036000D02*
X0085921Y0030000D01*
X0059921Y0030000D02*
X0059921Y0036000D01*
X0049921Y0036000D02*
X0049921Y0030000D01*
M02*
