G75*
%MOIN*%
%OFA0B0*%
%FSLAX25Y25*%
%IPPOS*%
%LPD*%
%AMOC8*
5,1,8,0,0,1.08239X$1,22.5*
%
%ADD10C,0.04331*%
%ADD11C,0.05600*%
%ADD12C,0.01000*%
D10*
X0031779Y0039686D02*
X0035323Y0039686D01*
X0031779Y0039686D02*
X0031779Y0039686D01*
X0035323Y0039686D01*
X0035323Y0039686D01*
X0035323Y0046379D02*
X0031779Y0046379D01*
X0031779Y0046379D01*
X0035323Y0046379D01*
X0035323Y0046379D01*
X0035323Y0053072D02*
X0031779Y0053072D01*
X0031779Y0053072D01*
X0035323Y0053072D01*
X0035323Y0053072D01*
X0050677Y0053072D02*
X0054221Y0053072D01*
X0050677Y0053072D02*
X0050677Y0053072D01*
X0054221Y0053072D01*
X0054221Y0053072D01*
X0054221Y0046379D02*
X0050677Y0046379D01*
X0050677Y0046379D01*
X0054221Y0046379D01*
X0054221Y0046379D01*
X0054221Y0039686D02*
X0050677Y0039686D01*
X0050677Y0039686D01*
X0054221Y0039686D01*
X0054221Y0039686D01*
D11*
X0063000Y0038879D03*
X0073000Y0043879D03*
X0063000Y0048879D03*
X0073000Y0053879D03*
X0023000Y0053879D03*
X0023000Y0043879D03*
X0013000Y0038879D03*
X0013000Y0048879D03*
D12*
X0023000Y0038879D02*
X0030500Y0031379D01*
X0058000Y0031379D01*
X0063000Y0036379D01*
X0063000Y0038879D01*
X0055500Y0043879D02*
X0053000Y0046379D01*
X0052449Y0046379D01*
X0055500Y0043879D02*
X0073000Y0043879D01*
X0063000Y0048879D02*
X0060500Y0048879D01*
X0058000Y0051379D01*
X0054142Y0051379D01*
X0052449Y0053072D01*
X0060500Y0053879D02*
X0053000Y0061379D01*
X0043000Y0061379D01*
X0043000Y0041379D01*
X0050756Y0041379D01*
X0052449Y0039686D01*
X0060500Y0053879D02*
X0073000Y0053879D01*
X0043000Y0061379D02*
X0033000Y0061379D01*
X0025500Y0053879D01*
X0023000Y0053879D01*
X0028944Y0048879D02*
X0031444Y0051379D01*
X0032151Y0051672D02*
X0033551Y0053072D01*
X0032151Y0051672D02*
X0032107Y0051630D01*
X0032061Y0051592D01*
X0032012Y0051556D01*
X0031961Y0051523D01*
X0031909Y0051494D01*
X0031854Y0051467D01*
X0031799Y0051444D01*
X0031742Y0051424D01*
X0031683Y0051408D01*
X0031624Y0051395D01*
X0031565Y0051386D01*
X0031504Y0051381D01*
X0031444Y0051379D01*
X0028944Y0048879D02*
X0013000Y0048879D01*
X0013000Y0038879D02*
X0023000Y0038879D01*
X0032744Y0038879D01*
X0033551Y0039686D01*
X0033000Y0039135D01*
X0031051Y0043879D02*
X0033551Y0046379D01*
X0031051Y0043879D02*
X0023000Y0043879D01*
M02*
