G75*
%MOIN*%
%OFA0B0*%
%FSLAX25Y25*%
%IPPOS*%
%LPD*%
%AMOC8*
5,1,8,0,0,1.08239X$1,22.5*
%
%ADD10C,0.01000*%
%ADD11C,0.00200*%
%ADD12C,0.00000*%
%ADD13C,0.00800*%
D10*
X0008000Y0021379D02*
X0078000Y0021379D01*
X0078000Y0071379D01*
X0008000Y0071379D01*
X0008000Y0021379D01*
D11*
X0018334Y0041479D02*
X0019034Y0041479D01*
X0019573Y0041479D02*
X0020040Y0041479D01*
X0019807Y0041479D02*
X0019807Y0042413D01*
X0019573Y0042413D01*
X0019807Y0042880D02*
X0019807Y0043114D01*
X0019034Y0042413D02*
X0018334Y0042413D01*
X0018100Y0042180D01*
X0018100Y0041713D01*
X0018334Y0041479D01*
X0018334Y0046479D02*
X0018100Y0046713D01*
X0018100Y0047180D01*
X0018334Y0047413D01*
X0019034Y0047413D01*
X0019034Y0047880D02*
X0019034Y0046479D01*
X0018334Y0046479D01*
X0019573Y0046479D02*
X0020040Y0046479D01*
X0019807Y0046479D02*
X0019807Y0047413D01*
X0019573Y0047413D01*
X0019807Y0047880D02*
X0019807Y0048114D01*
X0020040Y0051479D02*
X0020507Y0052413D01*
X0019573Y0052413D02*
X0020040Y0051479D01*
X0019034Y0051713D02*
X0019034Y0052180D01*
X0018801Y0052413D01*
X0018567Y0052413D01*
X0018100Y0052180D01*
X0018100Y0052880D01*
X0019034Y0052880D01*
X0019034Y0051713D02*
X0018801Y0051479D01*
X0018334Y0051479D01*
X0018100Y0051713D01*
X0033100Y0057479D02*
X0034968Y0057479D01*
X0035862Y0057479D02*
X0037731Y0057479D01*
X0038625Y0057479D02*
X0040026Y0057479D01*
X0040493Y0057946D01*
X0040493Y0059815D01*
X0040026Y0060282D01*
X0038625Y0060282D01*
X0038625Y0057479D01*
X0036796Y0058880D02*
X0035862Y0058880D01*
X0035862Y0057479D02*
X0035862Y0060282D01*
X0037731Y0060282D01*
X0041387Y0059347D02*
X0042321Y0060282D01*
X0042321Y0057479D01*
X0041387Y0057479D02*
X0043255Y0057479D01*
X0033100Y0057479D02*
X0033100Y0060282D01*
X0063100Y0037180D02*
X0063100Y0036713D01*
X0063334Y0036479D01*
X0064034Y0036479D01*
X0064034Y0036246D02*
X0064034Y0037413D01*
X0063334Y0037413D01*
X0063100Y0037180D01*
X0064034Y0036246D02*
X0063801Y0036012D01*
X0063567Y0036012D01*
X0064573Y0036479D02*
X0064573Y0037413D01*
X0065274Y0037413D01*
X0065507Y0037180D01*
X0065507Y0036479D01*
X0066047Y0036713D02*
X0066047Y0037180D01*
X0066280Y0037413D01*
X0066981Y0037413D01*
X0066981Y0037880D02*
X0066981Y0036479D01*
X0066280Y0036479D01*
X0066047Y0036713D01*
X0068334Y0041479D02*
X0069034Y0041479D01*
X0069573Y0041713D02*
X0069573Y0042180D01*
X0069807Y0042413D01*
X0070274Y0042413D01*
X0070507Y0042180D01*
X0070507Y0041713D01*
X0070274Y0041479D01*
X0069807Y0041479D01*
X0069573Y0041713D01*
X0069034Y0042413D02*
X0068334Y0042413D01*
X0068100Y0042180D01*
X0068100Y0041713D01*
X0068334Y0041479D01*
X0068334Y0046479D02*
X0068100Y0046713D01*
X0068100Y0047180D01*
X0068334Y0047413D01*
X0069034Y0047413D01*
X0069034Y0047880D02*
X0069034Y0046479D01*
X0068334Y0046479D01*
X0069573Y0046713D02*
X0069807Y0046479D01*
X0070274Y0046479D01*
X0070507Y0046713D01*
X0070507Y0047180D01*
X0070274Y0047413D01*
X0069807Y0047413D01*
X0069573Y0047180D01*
X0069573Y0046713D01*
X0070040Y0051479D02*
X0070507Y0052413D01*
X0069573Y0052413D02*
X0070040Y0051479D01*
X0069034Y0051713D02*
X0069034Y0052180D01*
X0068801Y0052413D01*
X0068567Y0052413D01*
X0068100Y0052180D01*
X0068100Y0052880D01*
X0069034Y0052880D01*
X0069034Y0051713D02*
X0068801Y0051479D01*
X0068334Y0051479D01*
X0068100Y0051713D01*
D12*
X0065500Y0064879D02*
X0065502Y0065005D01*
X0065508Y0065131D01*
X0065518Y0065257D01*
X0065532Y0065383D01*
X0065550Y0065508D01*
X0065572Y0065632D01*
X0065597Y0065756D01*
X0065627Y0065879D01*
X0065660Y0066000D01*
X0065698Y0066121D01*
X0065739Y0066240D01*
X0065784Y0066359D01*
X0065832Y0066475D01*
X0065884Y0066590D01*
X0065940Y0066703D01*
X0066000Y0066815D01*
X0066063Y0066924D01*
X0066129Y0067032D01*
X0066198Y0067137D01*
X0066271Y0067240D01*
X0066348Y0067341D01*
X0066427Y0067439D01*
X0066509Y0067535D01*
X0066595Y0067628D01*
X0066683Y0067719D01*
X0066774Y0067806D01*
X0066868Y0067891D01*
X0066964Y0067972D01*
X0067063Y0068051D01*
X0067164Y0068126D01*
X0067268Y0068198D01*
X0067374Y0068267D01*
X0067482Y0068333D01*
X0067592Y0068395D01*
X0067704Y0068453D01*
X0067817Y0068508D01*
X0067933Y0068559D01*
X0068050Y0068607D01*
X0068168Y0068651D01*
X0068288Y0068691D01*
X0068409Y0068727D01*
X0068531Y0068760D01*
X0068654Y0068789D01*
X0068778Y0068813D01*
X0068902Y0068834D01*
X0069027Y0068851D01*
X0069153Y0068864D01*
X0069279Y0068873D01*
X0069405Y0068878D01*
X0069532Y0068879D01*
X0069658Y0068876D01*
X0069784Y0068869D01*
X0069910Y0068858D01*
X0070035Y0068843D01*
X0070160Y0068824D01*
X0070284Y0068801D01*
X0070408Y0068775D01*
X0070530Y0068744D01*
X0070652Y0068710D01*
X0070772Y0068671D01*
X0070891Y0068629D01*
X0071009Y0068584D01*
X0071125Y0068534D01*
X0071240Y0068481D01*
X0071352Y0068424D01*
X0071463Y0068364D01*
X0071572Y0068300D01*
X0071679Y0068233D01*
X0071784Y0068163D01*
X0071887Y0068089D01*
X0071987Y0068012D01*
X0072085Y0067932D01*
X0072180Y0067849D01*
X0072272Y0067763D01*
X0072362Y0067674D01*
X0072449Y0067582D01*
X0072532Y0067488D01*
X0072613Y0067391D01*
X0072691Y0067291D01*
X0072766Y0067189D01*
X0072837Y0067085D01*
X0072905Y0066978D01*
X0072969Y0066870D01*
X0073030Y0066759D01*
X0073088Y0066647D01*
X0073142Y0066533D01*
X0073192Y0066417D01*
X0073239Y0066300D01*
X0073282Y0066181D01*
X0073321Y0066061D01*
X0073357Y0065940D01*
X0073388Y0065817D01*
X0073416Y0065694D01*
X0073440Y0065570D01*
X0073460Y0065445D01*
X0073476Y0065320D01*
X0073488Y0065194D01*
X0073496Y0065068D01*
X0073500Y0064942D01*
X0073500Y0064816D01*
X0073496Y0064690D01*
X0073488Y0064564D01*
X0073476Y0064438D01*
X0073460Y0064313D01*
X0073440Y0064188D01*
X0073416Y0064064D01*
X0073388Y0063941D01*
X0073357Y0063818D01*
X0073321Y0063697D01*
X0073282Y0063577D01*
X0073239Y0063458D01*
X0073192Y0063341D01*
X0073142Y0063225D01*
X0073088Y0063111D01*
X0073030Y0062999D01*
X0072969Y0062888D01*
X0072905Y0062780D01*
X0072837Y0062673D01*
X0072766Y0062569D01*
X0072691Y0062467D01*
X0072613Y0062367D01*
X0072532Y0062270D01*
X0072449Y0062176D01*
X0072362Y0062084D01*
X0072272Y0061995D01*
X0072180Y0061909D01*
X0072085Y0061826D01*
X0071987Y0061746D01*
X0071887Y0061669D01*
X0071784Y0061595D01*
X0071679Y0061525D01*
X0071572Y0061458D01*
X0071463Y0061394D01*
X0071352Y0061334D01*
X0071240Y0061277D01*
X0071125Y0061224D01*
X0071009Y0061174D01*
X0070891Y0061129D01*
X0070772Y0061087D01*
X0070652Y0061048D01*
X0070530Y0061014D01*
X0070408Y0060983D01*
X0070284Y0060957D01*
X0070160Y0060934D01*
X0070035Y0060915D01*
X0069910Y0060900D01*
X0069784Y0060889D01*
X0069658Y0060882D01*
X0069532Y0060879D01*
X0069405Y0060880D01*
X0069279Y0060885D01*
X0069153Y0060894D01*
X0069027Y0060907D01*
X0068902Y0060924D01*
X0068778Y0060945D01*
X0068654Y0060969D01*
X0068531Y0060998D01*
X0068409Y0061031D01*
X0068288Y0061067D01*
X0068168Y0061107D01*
X0068050Y0061151D01*
X0067933Y0061199D01*
X0067817Y0061250D01*
X0067704Y0061305D01*
X0067592Y0061363D01*
X0067482Y0061425D01*
X0067374Y0061491D01*
X0067268Y0061560D01*
X0067164Y0061632D01*
X0067063Y0061707D01*
X0066964Y0061786D01*
X0066868Y0061867D01*
X0066774Y0061952D01*
X0066683Y0062039D01*
X0066595Y0062130D01*
X0066509Y0062223D01*
X0066427Y0062319D01*
X0066348Y0062417D01*
X0066271Y0062518D01*
X0066198Y0062621D01*
X0066129Y0062726D01*
X0066063Y0062834D01*
X0066000Y0062943D01*
X0065940Y0063055D01*
X0065884Y0063168D01*
X0065832Y0063283D01*
X0065784Y0063399D01*
X0065739Y0063518D01*
X0065698Y0063637D01*
X0065660Y0063758D01*
X0065627Y0063879D01*
X0065597Y0064002D01*
X0065572Y0064126D01*
X0065550Y0064250D01*
X0065532Y0064375D01*
X0065518Y0064501D01*
X0065508Y0064627D01*
X0065502Y0064753D01*
X0065500Y0064879D01*
X0065500Y0027879D02*
X0065502Y0028005D01*
X0065508Y0028131D01*
X0065518Y0028257D01*
X0065532Y0028383D01*
X0065550Y0028508D01*
X0065572Y0028632D01*
X0065597Y0028756D01*
X0065627Y0028879D01*
X0065660Y0029000D01*
X0065698Y0029121D01*
X0065739Y0029240D01*
X0065784Y0029359D01*
X0065832Y0029475D01*
X0065884Y0029590D01*
X0065940Y0029703D01*
X0066000Y0029815D01*
X0066063Y0029924D01*
X0066129Y0030032D01*
X0066198Y0030137D01*
X0066271Y0030240D01*
X0066348Y0030341D01*
X0066427Y0030439D01*
X0066509Y0030535D01*
X0066595Y0030628D01*
X0066683Y0030719D01*
X0066774Y0030806D01*
X0066868Y0030891D01*
X0066964Y0030972D01*
X0067063Y0031051D01*
X0067164Y0031126D01*
X0067268Y0031198D01*
X0067374Y0031267D01*
X0067482Y0031333D01*
X0067592Y0031395D01*
X0067704Y0031453D01*
X0067817Y0031508D01*
X0067933Y0031559D01*
X0068050Y0031607D01*
X0068168Y0031651D01*
X0068288Y0031691D01*
X0068409Y0031727D01*
X0068531Y0031760D01*
X0068654Y0031789D01*
X0068778Y0031813D01*
X0068902Y0031834D01*
X0069027Y0031851D01*
X0069153Y0031864D01*
X0069279Y0031873D01*
X0069405Y0031878D01*
X0069532Y0031879D01*
X0069658Y0031876D01*
X0069784Y0031869D01*
X0069910Y0031858D01*
X0070035Y0031843D01*
X0070160Y0031824D01*
X0070284Y0031801D01*
X0070408Y0031775D01*
X0070530Y0031744D01*
X0070652Y0031710D01*
X0070772Y0031671D01*
X0070891Y0031629D01*
X0071009Y0031584D01*
X0071125Y0031534D01*
X0071240Y0031481D01*
X0071352Y0031424D01*
X0071463Y0031364D01*
X0071572Y0031300D01*
X0071679Y0031233D01*
X0071784Y0031163D01*
X0071887Y0031089D01*
X0071987Y0031012D01*
X0072085Y0030932D01*
X0072180Y0030849D01*
X0072272Y0030763D01*
X0072362Y0030674D01*
X0072449Y0030582D01*
X0072532Y0030488D01*
X0072613Y0030391D01*
X0072691Y0030291D01*
X0072766Y0030189D01*
X0072837Y0030085D01*
X0072905Y0029978D01*
X0072969Y0029870D01*
X0073030Y0029759D01*
X0073088Y0029647D01*
X0073142Y0029533D01*
X0073192Y0029417D01*
X0073239Y0029300D01*
X0073282Y0029181D01*
X0073321Y0029061D01*
X0073357Y0028940D01*
X0073388Y0028817D01*
X0073416Y0028694D01*
X0073440Y0028570D01*
X0073460Y0028445D01*
X0073476Y0028320D01*
X0073488Y0028194D01*
X0073496Y0028068D01*
X0073500Y0027942D01*
X0073500Y0027816D01*
X0073496Y0027690D01*
X0073488Y0027564D01*
X0073476Y0027438D01*
X0073460Y0027313D01*
X0073440Y0027188D01*
X0073416Y0027064D01*
X0073388Y0026941D01*
X0073357Y0026818D01*
X0073321Y0026697D01*
X0073282Y0026577D01*
X0073239Y0026458D01*
X0073192Y0026341D01*
X0073142Y0026225D01*
X0073088Y0026111D01*
X0073030Y0025999D01*
X0072969Y0025888D01*
X0072905Y0025780D01*
X0072837Y0025673D01*
X0072766Y0025569D01*
X0072691Y0025467D01*
X0072613Y0025367D01*
X0072532Y0025270D01*
X0072449Y0025176D01*
X0072362Y0025084D01*
X0072272Y0024995D01*
X0072180Y0024909D01*
X0072085Y0024826D01*
X0071987Y0024746D01*
X0071887Y0024669D01*
X0071784Y0024595D01*
X0071679Y0024525D01*
X0071572Y0024458D01*
X0071463Y0024394D01*
X0071352Y0024334D01*
X0071240Y0024277D01*
X0071125Y0024224D01*
X0071009Y0024174D01*
X0070891Y0024129D01*
X0070772Y0024087D01*
X0070652Y0024048D01*
X0070530Y0024014D01*
X0070408Y0023983D01*
X0070284Y0023957D01*
X0070160Y0023934D01*
X0070035Y0023915D01*
X0069910Y0023900D01*
X0069784Y0023889D01*
X0069658Y0023882D01*
X0069532Y0023879D01*
X0069405Y0023880D01*
X0069279Y0023885D01*
X0069153Y0023894D01*
X0069027Y0023907D01*
X0068902Y0023924D01*
X0068778Y0023945D01*
X0068654Y0023969D01*
X0068531Y0023998D01*
X0068409Y0024031D01*
X0068288Y0024067D01*
X0068168Y0024107D01*
X0068050Y0024151D01*
X0067933Y0024199D01*
X0067817Y0024250D01*
X0067704Y0024305D01*
X0067592Y0024363D01*
X0067482Y0024425D01*
X0067374Y0024491D01*
X0067268Y0024560D01*
X0067164Y0024632D01*
X0067063Y0024707D01*
X0066964Y0024786D01*
X0066868Y0024867D01*
X0066774Y0024952D01*
X0066683Y0025039D01*
X0066595Y0025130D01*
X0066509Y0025223D01*
X0066427Y0025319D01*
X0066348Y0025417D01*
X0066271Y0025518D01*
X0066198Y0025621D01*
X0066129Y0025726D01*
X0066063Y0025834D01*
X0066000Y0025943D01*
X0065940Y0026055D01*
X0065884Y0026168D01*
X0065832Y0026283D01*
X0065784Y0026399D01*
X0065739Y0026518D01*
X0065698Y0026637D01*
X0065660Y0026758D01*
X0065627Y0026879D01*
X0065597Y0027002D01*
X0065572Y0027126D01*
X0065550Y0027250D01*
X0065532Y0027375D01*
X0065518Y0027501D01*
X0065508Y0027627D01*
X0065502Y0027753D01*
X0065500Y0027879D01*
X0011500Y0027879D02*
X0011502Y0028005D01*
X0011508Y0028131D01*
X0011518Y0028257D01*
X0011532Y0028383D01*
X0011550Y0028508D01*
X0011572Y0028632D01*
X0011597Y0028756D01*
X0011627Y0028879D01*
X0011660Y0029000D01*
X0011698Y0029121D01*
X0011739Y0029240D01*
X0011784Y0029359D01*
X0011832Y0029475D01*
X0011884Y0029590D01*
X0011940Y0029703D01*
X0012000Y0029815D01*
X0012063Y0029924D01*
X0012129Y0030032D01*
X0012198Y0030137D01*
X0012271Y0030240D01*
X0012348Y0030341D01*
X0012427Y0030439D01*
X0012509Y0030535D01*
X0012595Y0030628D01*
X0012683Y0030719D01*
X0012774Y0030806D01*
X0012868Y0030891D01*
X0012964Y0030972D01*
X0013063Y0031051D01*
X0013164Y0031126D01*
X0013268Y0031198D01*
X0013374Y0031267D01*
X0013482Y0031333D01*
X0013592Y0031395D01*
X0013704Y0031453D01*
X0013817Y0031508D01*
X0013933Y0031559D01*
X0014050Y0031607D01*
X0014168Y0031651D01*
X0014288Y0031691D01*
X0014409Y0031727D01*
X0014531Y0031760D01*
X0014654Y0031789D01*
X0014778Y0031813D01*
X0014902Y0031834D01*
X0015027Y0031851D01*
X0015153Y0031864D01*
X0015279Y0031873D01*
X0015405Y0031878D01*
X0015532Y0031879D01*
X0015658Y0031876D01*
X0015784Y0031869D01*
X0015910Y0031858D01*
X0016035Y0031843D01*
X0016160Y0031824D01*
X0016284Y0031801D01*
X0016408Y0031775D01*
X0016530Y0031744D01*
X0016652Y0031710D01*
X0016772Y0031671D01*
X0016891Y0031629D01*
X0017009Y0031584D01*
X0017125Y0031534D01*
X0017240Y0031481D01*
X0017352Y0031424D01*
X0017463Y0031364D01*
X0017572Y0031300D01*
X0017679Y0031233D01*
X0017784Y0031163D01*
X0017887Y0031089D01*
X0017987Y0031012D01*
X0018085Y0030932D01*
X0018180Y0030849D01*
X0018272Y0030763D01*
X0018362Y0030674D01*
X0018449Y0030582D01*
X0018532Y0030488D01*
X0018613Y0030391D01*
X0018691Y0030291D01*
X0018766Y0030189D01*
X0018837Y0030085D01*
X0018905Y0029978D01*
X0018969Y0029870D01*
X0019030Y0029759D01*
X0019088Y0029647D01*
X0019142Y0029533D01*
X0019192Y0029417D01*
X0019239Y0029300D01*
X0019282Y0029181D01*
X0019321Y0029061D01*
X0019357Y0028940D01*
X0019388Y0028817D01*
X0019416Y0028694D01*
X0019440Y0028570D01*
X0019460Y0028445D01*
X0019476Y0028320D01*
X0019488Y0028194D01*
X0019496Y0028068D01*
X0019500Y0027942D01*
X0019500Y0027816D01*
X0019496Y0027690D01*
X0019488Y0027564D01*
X0019476Y0027438D01*
X0019460Y0027313D01*
X0019440Y0027188D01*
X0019416Y0027064D01*
X0019388Y0026941D01*
X0019357Y0026818D01*
X0019321Y0026697D01*
X0019282Y0026577D01*
X0019239Y0026458D01*
X0019192Y0026341D01*
X0019142Y0026225D01*
X0019088Y0026111D01*
X0019030Y0025999D01*
X0018969Y0025888D01*
X0018905Y0025780D01*
X0018837Y0025673D01*
X0018766Y0025569D01*
X0018691Y0025467D01*
X0018613Y0025367D01*
X0018532Y0025270D01*
X0018449Y0025176D01*
X0018362Y0025084D01*
X0018272Y0024995D01*
X0018180Y0024909D01*
X0018085Y0024826D01*
X0017987Y0024746D01*
X0017887Y0024669D01*
X0017784Y0024595D01*
X0017679Y0024525D01*
X0017572Y0024458D01*
X0017463Y0024394D01*
X0017352Y0024334D01*
X0017240Y0024277D01*
X0017125Y0024224D01*
X0017009Y0024174D01*
X0016891Y0024129D01*
X0016772Y0024087D01*
X0016652Y0024048D01*
X0016530Y0024014D01*
X0016408Y0023983D01*
X0016284Y0023957D01*
X0016160Y0023934D01*
X0016035Y0023915D01*
X0015910Y0023900D01*
X0015784Y0023889D01*
X0015658Y0023882D01*
X0015532Y0023879D01*
X0015405Y0023880D01*
X0015279Y0023885D01*
X0015153Y0023894D01*
X0015027Y0023907D01*
X0014902Y0023924D01*
X0014778Y0023945D01*
X0014654Y0023969D01*
X0014531Y0023998D01*
X0014409Y0024031D01*
X0014288Y0024067D01*
X0014168Y0024107D01*
X0014050Y0024151D01*
X0013933Y0024199D01*
X0013817Y0024250D01*
X0013704Y0024305D01*
X0013592Y0024363D01*
X0013482Y0024425D01*
X0013374Y0024491D01*
X0013268Y0024560D01*
X0013164Y0024632D01*
X0013063Y0024707D01*
X0012964Y0024786D01*
X0012868Y0024867D01*
X0012774Y0024952D01*
X0012683Y0025039D01*
X0012595Y0025130D01*
X0012509Y0025223D01*
X0012427Y0025319D01*
X0012348Y0025417D01*
X0012271Y0025518D01*
X0012198Y0025621D01*
X0012129Y0025726D01*
X0012063Y0025834D01*
X0012000Y0025943D01*
X0011940Y0026055D01*
X0011884Y0026168D01*
X0011832Y0026283D01*
X0011784Y0026399D01*
X0011739Y0026518D01*
X0011698Y0026637D01*
X0011660Y0026758D01*
X0011627Y0026879D01*
X0011597Y0027002D01*
X0011572Y0027126D01*
X0011550Y0027250D01*
X0011532Y0027375D01*
X0011518Y0027501D01*
X0011508Y0027627D01*
X0011502Y0027753D01*
X0011500Y0027879D01*
X0011500Y0064879D02*
X0011502Y0065005D01*
X0011508Y0065131D01*
X0011518Y0065257D01*
X0011532Y0065383D01*
X0011550Y0065508D01*
X0011572Y0065632D01*
X0011597Y0065756D01*
X0011627Y0065879D01*
X0011660Y0066000D01*
X0011698Y0066121D01*
X0011739Y0066240D01*
X0011784Y0066359D01*
X0011832Y0066475D01*
X0011884Y0066590D01*
X0011940Y0066703D01*
X0012000Y0066815D01*
X0012063Y0066924D01*
X0012129Y0067032D01*
X0012198Y0067137D01*
X0012271Y0067240D01*
X0012348Y0067341D01*
X0012427Y0067439D01*
X0012509Y0067535D01*
X0012595Y0067628D01*
X0012683Y0067719D01*
X0012774Y0067806D01*
X0012868Y0067891D01*
X0012964Y0067972D01*
X0013063Y0068051D01*
X0013164Y0068126D01*
X0013268Y0068198D01*
X0013374Y0068267D01*
X0013482Y0068333D01*
X0013592Y0068395D01*
X0013704Y0068453D01*
X0013817Y0068508D01*
X0013933Y0068559D01*
X0014050Y0068607D01*
X0014168Y0068651D01*
X0014288Y0068691D01*
X0014409Y0068727D01*
X0014531Y0068760D01*
X0014654Y0068789D01*
X0014778Y0068813D01*
X0014902Y0068834D01*
X0015027Y0068851D01*
X0015153Y0068864D01*
X0015279Y0068873D01*
X0015405Y0068878D01*
X0015532Y0068879D01*
X0015658Y0068876D01*
X0015784Y0068869D01*
X0015910Y0068858D01*
X0016035Y0068843D01*
X0016160Y0068824D01*
X0016284Y0068801D01*
X0016408Y0068775D01*
X0016530Y0068744D01*
X0016652Y0068710D01*
X0016772Y0068671D01*
X0016891Y0068629D01*
X0017009Y0068584D01*
X0017125Y0068534D01*
X0017240Y0068481D01*
X0017352Y0068424D01*
X0017463Y0068364D01*
X0017572Y0068300D01*
X0017679Y0068233D01*
X0017784Y0068163D01*
X0017887Y0068089D01*
X0017987Y0068012D01*
X0018085Y0067932D01*
X0018180Y0067849D01*
X0018272Y0067763D01*
X0018362Y0067674D01*
X0018449Y0067582D01*
X0018532Y0067488D01*
X0018613Y0067391D01*
X0018691Y0067291D01*
X0018766Y0067189D01*
X0018837Y0067085D01*
X0018905Y0066978D01*
X0018969Y0066870D01*
X0019030Y0066759D01*
X0019088Y0066647D01*
X0019142Y0066533D01*
X0019192Y0066417D01*
X0019239Y0066300D01*
X0019282Y0066181D01*
X0019321Y0066061D01*
X0019357Y0065940D01*
X0019388Y0065817D01*
X0019416Y0065694D01*
X0019440Y0065570D01*
X0019460Y0065445D01*
X0019476Y0065320D01*
X0019488Y0065194D01*
X0019496Y0065068D01*
X0019500Y0064942D01*
X0019500Y0064816D01*
X0019496Y0064690D01*
X0019488Y0064564D01*
X0019476Y0064438D01*
X0019460Y0064313D01*
X0019440Y0064188D01*
X0019416Y0064064D01*
X0019388Y0063941D01*
X0019357Y0063818D01*
X0019321Y0063697D01*
X0019282Y0063577D01*
X0019239Y0063458D01*
X0019192Y0063341D01*
X0019142Y0063225D01*
X0019088Y0063111D01*
X0019030Y0062999D01*
X0018969Y0062888D01*
X0018905Y0062780D01*
X0018837Y0062673D01*
X0018766Y0062569D01*
X0018691Y0062467D01*
X0018613Y0062367D01*
X0018532Y0062270D01*
X0018449Y0062176D01*
X0018362Y0062084D01*
X0018272Y0061995D01*
X0018180Y0061909D01*
X0018085Y0061826D01*
X0017987Y0061746D01*
X0017887Y0061669D01*
X0017784Y0061595D01*
X0017679Y0061525D01*
X0017572Y0061458D01*
X0017463Y0061394D01*
X0017352Y0061334D01*
X0017240Y0061277D01*
X0017125Y0061224D01*
X0017009Y0061174D01*
X0016891Y0061129D01*
X0016772Y0061087D01*
X0016652Y0061048D01*
X0016530Y0061014D01*
X0016408Y0060983D01*
X0016284Y0060957D01*
X0016160Y0060934D01*
X0016035Y0060915D01*
X0015910Y0060900D01*
X0015784Y0060889D01*
X0015658Y0060882D01*
X0015532Y0060879D01*
X0015405Y0060880D01*
X0015279Y0060885D01*
X0015153Y0060894D01*
X0015027Y0060907D01*
X0014902Y0060924D01*
X0014778Y0060945D01*
X0014654Y0060969D01*
X0014531Y0060998D01*
X0014409Y0061031D01*
X0014288Y0061067D01*
X0014168Y0061107D01*
X0014050Y0061151D01*
X0013933Y0061199D01*
X0013817Y0061250D01*
X0013704Y0061305D01*
X0013592Y0061363D01*
X0013482Y0061425D01*
X0013374Y0061491D01*
X0013268Y0061560D01*
X0013164Y0061632D01*
X0013063Y0061707D01*
X0012964Y0061786D01*
X0012868Y0061867D01*
X0012774Y0061952D01*
X0012683Y0062039D01*
X0012595Y0062130D01*
X0012509Y0062223D01*
X0012427Y0062319D01*
X0012348Y0062417D01*
X0012271Y0062518D01*
X0012198Y0062621D01*
X0012129Y0062726D01*
X0012063Y0062834D01*
X0012000Y0062943D01*
X0011940Y0063055D01*
X0011884Y0063168D01*
X0011832Y0063283D01*
X0011784Y0063399D01*
X0011739Y0063518D01*
X0011698Y0063637D01*
X0011660Y0063758D01*
X0011627Y0063879D01*
X0011597Y0064002D01*
X0011572Y0064126D01*
X0011550Y0064250D01*
X0011532Y0064375D01*
X0011518Y0064501D01*
X0011508Y0064627D01*
X0011502Y0064753D01*
X0011500Y0064879D01*
D13*
X0033157Y0049923D02*
X0033157Y0049135D01*
X0033157Y0043623D02*
X0033157Y0042836D01*
X0039063Y0036537D02*
X0046937Y0036537D01*
X0052843Y0042836D02*
X0052843Y0043623D01*
X0052843Y0049135D02*
X0052843Y0049923D01*
X0046937Y0056222D02*
X0039063Y0056222D01*
X0039364Y0054253D02*
X0039366Y0054312D01*
X0039372Y0054370D01*
X0039382Y0054428D01*
X0039395Y0054485D01*
X0039413Y0054542D01*
X0039434Y0054597D01*
X0039459Y0054650D01*
X0039487Y0054701D01*
X0039518Y0054751D01*
X0039553Y0054798D01*
X0039591Y0054843D01*
X0039632Y0054886D01*
X0039676Y0054925D01*
X0039722Y0054961D01*
X0039770Y0054995D01*
X0039821Y0055025D01*
X0039874Y0055051D01*
X0039928Y0055074D01*
X0039983Y0055093D01*
X0040040Y0055109D01*
X0040098Y0055121D01*
X0040156Y0055129D01*
X0040215Y0055133D01*
X0040273Y0055133D01*
X0040332Y0055129D01*
X0040390Y0055121D01*
X0040448Y0055109D01*
X0040505Y0055093D01*
X0040560Y0055074D01*
X0040614Y0055051D01*
X0040667Y0055025D01*
X0040718Y0054995D01*
X0040766Y0054961D01*
X0040812Y0054925D01*
X0040856Y0054886D01*
X0040897Y0054843D01*
X0040935Y0054798D01*
X0040970Y0054751D01*
X0041001Y0054701D01*
X0041029Y0054650D01*
X0041054Y0054597D01*
X0041075Y0054542D01*
X0041093Y0054485D01*
X0041106Y0054428D01*
X0041116Y0054370D01*
X0041122Y0054312D01*
X0041124Y0054253D01*
X0041122Y0054194D01*
X0041116Y0054136D01*
X0041106Y0054078D01*
X0041093Y0054021D01*
X0041075Y0053964D01*
X0041054Y0053909D01*
X0041029Y0053856D01*
X0041001Y0053805D01*
X0040970Y0053755D01*
X0040935Y0053708D01*
X0040897Y0053663D01*
X0040856Y0053620D01*
X0040812Y0053581D01*
X0040766Y0053545D01*
X0040718Y0053511D01*
X0040667Y0053481D01*
X0040614Y0053455D01*
X0040560Y0053432D01*
X0040505Y0053413D01*
X0040448Y0053397D01*
X0040390Y0053385D01*
X0040332Y0053377D01*
X0040273Y0053373D01*
X0040215Y0053373D01*
X0040156Y0053377D01*
X0040098Y0053385D01*
X0040040Y0053397D01*
X0039983Y0053413D01*
X0039928Y0053432D01*
X0039874Y0053455D01*
X0039821Y0053481D01*
X0039770Y0053511D01*
X0039722Y0053545D01*
X0039676Y0053581D01*
X0039632Y0053620D01*
X0039591Y0053663D01*
X0039553Y0053708D01*
X0039518Y0053755D01*
X0039487Y0053805D01*
X0039459Y0053856D01*
X0039434Y0053909D01*
X0039413Y0053964D01*
X0039395Y0054021D01*
X0039382Y0054078D01*
X0039372Y0054136D01*
X0039366Y0054194D01*
X0039364Y0054253D01*
X0044000Y0046879D02*
X0045000Y0046879D01*
X0045000Y0045879D01*
X0044000Y0045879D01*
X0044000Y0046879D01*
M02*
