G75*
%MOIN*%
%OFA0B0*%
%FSLAX25Y25*%
%IPPOS*%
%LPD*%
%AMOC8*
5,1,8,0,0,1.08239X$1,22.5*
%
%ADD10C,0.08800*%
%ADD11C,0.05131*%
%ADD12C,0.06400*%
D10*
X0015500Y0027879D03*
X0015500Y0064879D03*
X0069500Y0064879D03*
X0069500Y0027879D03*
D11*
X0054221Y0039686D02*
X0050677Y0039686D01*
X0050677Y0039686D01*
X0054221Y0039686D01*
X0054221Y0039686D01*
X0054221Y0046379D02*
X0050677Y0046379D01*
X0050677Y0046379D01*
X0054221Y0046379D01*
X0054221Y0046379D01*
X0054221Y0053072D02*
X0050677Y0053072D01*
X0050677Y0053072D01*
X0054221Y0053072D01*
X0054221Y0053072D01*
X0035323Y0053072D02*
X0031779Y0053072D01*
X0031779Y0053072D01*
X0035323Y0053072D01*
X0035323Y0053072D01*
X0035323Y0046379D02*
X0031779Y0046379D01*
X0031779Y0046379D01*
X0035323Y0046379D01*
X0035323Y0046379D01*
X0035323Y0039686D02*
X0031779Y0039686D01*
X0031779Y0039686D01*
X0035323Y0039686D01*
X0035323Y0039686D01*
D12*
X0023000Y0043879D03*
X0023000Y0053879D03*
X0013000Y0048879D03*
X0013000Y0038879D03*
X0063000Y0038879D03*
X0073000Y0043879D03*
X0063000Y0048879D03*
X0073000Y0053879D03*
M02*
