*
%FSLAX24Y24*%
%MOIN*%
%ADD10C,0.010000*%
%ADD11C,0.118110*%
%ADD12C,0.059060*%
%ADD13C,0.009840*%
%IPPOS*%
%LNoutline.gbr*%
%LPD*%
G75*
G54D10*
X000800Y002138D02*
X007800D01*
Y007138D01*
X000800D01*
Y-000362D01*
Y007138D02*
X007800D01*
Y012138D01*
X000800D01*
Y007138D01*
Y012138D02*
X007800D01*
Y017138D01*
X000800D01*
Y012138D01*
Y017138D02*
X007800D01*
Y022138D01*
X000800D01*
Y017138D01*
Y022138D02*
X007800D01*
Y027138D01*
X000800D01*
Y022138D01*
Y027138D02*
X007800D01*
Y032138D01*
X000800D01*
Y027138D01*
Y032138D02*
X007800D01*
Y037138D01*
X000800D01*
Y032138D01*
Y037138D02*
X007800D01*
Y042138D01*
X000800D01*
Y037138D01*
Y042138D02*
X007800D01*
Y047138D01*
X000800D01*
Y042138D01*
Y047138D02*
X007800D01*
Y052138D01*
X000800D01*
Y047138D01*
Y052138D02*
X007800D01*
Y057138D01*
X000800D01*
Y052138D01*
Y057138D02*
X007800D01*
Y062138D01*
X000800D01*
Y057138D01*
Y062138D02*
X007800D01*
Y067138D01*
X000800D01*
Y062138D01*
Y067138D02*
X007800D01*
Y072138D01*
X000800D01*
Y074638D02*
Y067138D01*
X008430Y002138D02*
X015430D01*
Y007138D01*
X008430D01*
Y002138D01*
Y007138D02*
X015430D01*
Y012138D01*
X008430D01*
Y007138D01*
Y012138D02*
X015430D01*
Y017138D01*
X008430D01*
Y012138D01*
Y017138D02*
X015430D01*
Y022138D01*
X008430D01*
Y017138D01*
Y022138D02*
X015430D01*
Y027138D01*
X008430D01*
Y022138D01*
Y027138D02*
X015430D01*
Y032138D01*
X008430D01*
Y027138D01*
Y032138D02*
X015430D01*
Y037138D01*
X008430D01*
Y032138D01*
Y037138D02*
X015430D01*
Y042138D01*
X008430D01*
Y037138D01*
Y042138D02*
X015430D01*
Y047138D01*
X008430D01*
Y042138D01*
Y047138D02*
X015430D01*
Y052138D01*
X008430D01*
Y047138D01*
Y052138D02*
X015430D01*
Y057138D01*
X008430D01*
Y052138D01*
Y057138D02*
X015430D01*
Y062138D01*
X008430D01*
Y057138D01*
Y062138D02*
X015430D01*
Y067138D01*
X008430D01*
Y062138D01*
Y067138D02*
X015430D01*
Y072138D01*
X008430D01*
Y067138D01*
X016060Y002138D02*
X023060D01*
Y007138D01*
X016060D01*
Y002138D01*
Y007138D02*
X023060D01*
Y012138D01*
X016060D01*
Y007138D01*
Y012138D02*
X023060D01*
Y017138D01*
X016060D01*
Y012138D01*
Y017138D02*
X023060D01*
Y022138D01*
X016060D01*
Y017138D01*
Y022138D02*
X023060D01*
Y027138D01*
X016060D01*
Y022138D01*
Y027138D02*
X023060D01*
Y032138D01*
X016060D01*
Y027138D01*
Y032138D02*
X023060D01*
Y037138D01*
X016060D01*
Y032138D01*
Y037138D02*
X023060D01*
Y042138D01*
X016060D01*
Y037138D01*
Y042138D02*
X023060D01*
Y047138D01*
X016060D01*
Y042138D01*
Y047138D02*
X023060D01*
Y052138D01*
X016060D01*
Y047138D01*
Y052138D02*
X023060D01*
Y057138D01*
X016060D01*
Y052138D01*
Y057138D02*
X023060D01*
Y062138D01*
X016060D01*
Y057138D01*
Y062138D02*
X023060D01*
Y067138D01*
X016060D01*
Y062138D01*
Y067138D02*
X023060D01*
Y072138D01*
X016060D01*
Y067138D01*
X023690Y002138D02*
X030690D01*
Y007138D01*
X023690D01*
Y002138D01*
Y007138D02*
X030690D01*
Y012138D01*
X023690D01*
Y007138D01*
Y012138D02*
X030690D01*
Y017138D01*
X023690D01*
Y012138D01*
Y017138D02*
X030690D01*
Y022138D01*
X023690D01*
Y017138D01*
Y022138D02*
X030690D01*
Y027138D01*
X023690D01*
Y022138D01*
Y027138D02*
X030690D01*
Y032138D01*
X023690D01*
Y027138D01*
Y032138D02*
X030690D01*
Y037138D01*
X023690D01*
Y032138D01*
Y037138D02*
X030690D01*
Y042138D01*
X023690D01*
Y037138D01*
Y042138D02*
X030690D01*
Y047138D01*
X023690D01*
Y042138D01*
Y047138D02*
X030690D01*
Y052138D01*
X023690D01*
Y047138D01*
Y052138D02*
X030690D01*
Y057138D01*
X023690D01*
Y052138D01*
Y057138D02*
X030690D01*
Y062138D01*
X023690D01*
Y057138D01*
Y062138D02*
X030690D01*
Y067138D01*
X023690D01*
Y062138D01*
Y067138D02*
X030690D01*
Y072138D01*
X023690D01*
Y067138D01*
X031320Y002138D02*
X038320D01*
Y007138D01*
X031320D01*
Y002138D01*
Y007138D02*
X038320D01*
Y012138D01*
X031320D01*
Y007138D01*
Y012138D02*
X038320D01*
Y017138D01*
X031320D01*
Y012138D01*
Y017138D02*
X038320D01*
Y022138D01*
X031320D01*
Y017138D01*
Y022138D02*
X038320D01*
Y027138D01*
X031320D01*
Y022138D01*
Y027138D02*
X038320D01*
Y032138D01*
X031320D01*
Y027138D01*
Y032138D02*
X038320D01*
Y037138D01*
X031320D01*
Y032138D01*
Y037138D02*
X038320D01*
Y042138D01*
X031320D01*
Y037138D01*
Y042138D02*
X038320D01*
Y047138D01*
X031320D01*
Y042138D01*
Y047138D02*
X038320D01*
Y052138D01*
X031320D01*
Y047138D01*
Y052138D02*
X038320D01*
Y057138D01*
X031320D01*
Y052138D01*
Y057138D02*
X038320D01*
Y062138D01*
X031320D01*
Y057138D01*
Y062138D02*
X038320D01*
Y067138D01*
X031320D01*
Y062138D01*
Y067138D02*
X038320D01*
Y072138D01*
X031320D01*
Y067138D01*
X038950Y002138D02*
X045950D01*
Y007138D01*
X038950D01*
Y002138D01*
Y007138D02*
X045950D01*
Y012138D01*
X038950D01*
Y007138D01*
Y012138D02*
X045950D01*
Y017138D01*
X038950D01*
Y012138D01*
Y017138D02*
X045950D01*
Y022138D01*
X038950D01*
Y017138D01*
Y022138D02*
X045950D01*
Y027138D01*
X038950D01*
Y022138D01*
Y027138D02*
X045950D01*
Y032138D01*
X038950D01*
Y027138D01*
Y032138D02*
X045950D01*
Y037138D01*
X038950D01*
Y032138D01*
Y037138D02*
X045950D01*
Y042138D01*
X038950D01*
Y037138D01*
Y042138D02*
X045950D01*
Y047138D01*
X038950D01*
Y042138D01*
Y047138D02*
X045950D01*
Y052138D01*
X038950D01*
Y047138D01*
Y052138D02*
X045950D01*
Y057138D01*
X038950D01*
Y052138D01*
Y057138D02*
X045950D01*
Y062138D01*
X038950D01*
Y057138D01*
Y062138D02*
X045950D01*
Y067138D01*
X038950D01*
Y062138D01*
Y067138D02*
X045950D01*
Y072138D01*
X038950D01*
Y067138D01*
X046580Y002138D02*
X053580D01*
Y007138D01*
X046580D01*
Y002138D01*
Y007138D02*
X053580D01*
Y012138D01*
X046580D01*
Y007138D01*
Y012138D02*
X053580D01*
Y017138D01*
X046580D01*
Y012138D01*
Y017138D02*
X053580D01*
Y022138D01*
X046580D01*
Y017138D01*
Y022138D02*
X053580D01*
Y027138D01*
X046580D01*
Y022138D01*
Y027138D02*
X053580D01*
Y032138D01*
X046580D01*
Y027138D01*
Y032138D02*
X053580D01*
Y037138D01*
X046580D01*
Y032138D01*
Y037138D02*
X053580D01*
Y042138D01*
X046580D01*
Y037138D01*
Y042138D02*
X053580D01*
Y047138D01*
X046580D01*
Y042138D01*
Y047138D02*
X053580D01*
Y052138D01*
X046580D01*
Y047138D01*
Y052138D02*
X053580D01*
Y057138D01*
X046580D01*
Y052138D01*
Y057138D02*
X053580D01*
Y062138D01*
X046580D01*
Y057138D01*
Y062138D02*
X053580D01*
Y067138D01*
X046580D01*
Y062138D01*
Y067138D02*
X053580D01*
Y072138D01*
X046580D01*
Y067138D01*
X054209Y002138D02*
X061209D01*
Y007138D01*
X054209D01*
Y002138D01*
Y007138D02*
X061209D01*
Y012138D01*
X054209D01*
Y007138D01*
Y012138D02*
X061209D01*
Y017138D01*
X054209D01*
Y012138D01*
Y017138D02*
X061209D01*
Y022138D01*
X054209D01*
Y017138D01*
Y022138D02*
X061209D01*
Y027138D01*
X054209D01*
Y022138D01*
Y027138D02*
X061209D01*
Y032138D01*
X054209D01*
Y027138D01*
Y032138D02*
X061209D01*
Y037138D01*
X054209D01*
Y032138D01*
Y037138D02*
X061209D01*
Y042138D01*
X054209D01*
Y037138D01*
Y042138D02*
X061209D01*
Y047138D01*
X054209D01*
Y042138D01*
Y047138D02*
X061209D01*
Y052138D01*
X054209D01*
Y047138D01*
Y052138D02*
X061209D01*
Y057138D01*
X054209D01*
Y052138D01*
Y057138D02*
X061209D01*
Y062138D01*
X054209D01*
Y057138D01*
Y062138D02*
X061209D01*
Y067138D01*
X054209D01*
Y062138D01*
Y067138D02*
X061209D01*
Y072138D01*
X054209D01*
Y067138D01*
X061839Y002138D02*
X068839D01*
Y-000362D02*
Y007138D01*
X061839D01*
Y002138D01*
Y007138D02*
X068839D01*
Y012138D01*
X061839D01*
Y007138D01*
Y012138D02*
X068839D01*
Y017138D01*
X061839D01*
Y012138D01*
Y017138D02*
X068839D01*
Y022138D01*
X061839D01*
Y017138D01*
Y022138D02*
X068839D01*
Y027138D01*
X061839D01*
Y022138D01*
Y027138D02*
X068839D01*
Y032138D01*
X061839D01*
Y027138D01*
Y032138D02*
X068839D01*
Y037138D01*
X061839D01*
Y032138D01*
Y037138D02*
X068839D01*
Y042138D01*
X061839D01*
Y037138D01*
Y042138D02*
X068839D01*
Y047138D01*
X061839D01*
Y042138D01*
Y047138D02*
X068839D01*
Y052138D01*
X061839D01*
Y047138D01*
Y052138D02*
X068839D01*
Y057138D01*
X061839D01*
Y052138D01*
Y057138D02*
X068839D01*
Y062138D01*
X061839D01*
Y057138D01*
Y062138D02*
X068839D01*
Y067138D01*
X061839D01*
Y062138D01*
Y067138D02*
X068839D01*
Y074638D01*
Y072138D02*
X061839D01*
Y067138D01*
X068839Y074638D02*
X000800D01*
Y-000362D02*
X068839D01*
G54D11*
X067589Y000888D03*
G54D12*
X063652D03*
G54D13*
Y000209D02*
X063536Y000218D01*
X063424Y000247D01*
X063318Y000295D01*
X063222Y000361D01*
X063138Y000442D01*
X063070Y000536D01*
X063018Y000640D01*
X062985Y000752D01*
X062972Y000867D01*
X062978Y000984D01*
X063005Y001097D01*
X063050Y001204D01*
X063112Y001302D01*
X063191Y001388D01*
X063283Y001459D01*
X063385Y001514D01*
X063496Y001550D01*
X063611Y001567D01*
X063652D01*
X063768Y001558D01*
X063880Y001529D01*
X063986Y001481D01*
X064082Y001415D01*
X064166Y001334D01*
X064234Y001240D01*
X064286Y001136D01*
X064319Y001024D01*
X064332Y000908D01*
X064326Y000792D01*
X064300Y000679D01*
X064254Y000572D01*
X064192Y000474D01*
X064113Y000388D01*
X064021Y000317D01*
X063919Y000262D01*
X063808Y000226D01*
X063693Y000209D01*
X063652D01*
G54D11*
X067589Y073388D03*
G54D12*
X063652D03*
G54D13*
Y072709D02*
X063536Y072718D01*
X063424Y072747D01*
X063318Y072795D01*
X063222Y072861D01*
X063138Y072942D01*
X063070Y073036D01*
X063018Y073140D01*
X062985Y073252D01*
X062972Y073367D01*
X062978Y073484D01*
X063005Y073597D01*
X063050Y073704D01*
X063112Y073802D01*
X063191Y073888D01*
X063283Y073959D01*
X063385Y074014D01*
X063496Y074050D01*
X063611Y074067D01*
X063652D01*
X063768Y074058D01*
X063880Y074029D01*
X063986Y073981D01*
X064082Y073915D01*
X064166Y073834D01*
X064234Y073740D01*
X064286Y073636D01*
X064319Y073524D01*
X064332Y073408D01*
X064326Y073292D01*
X064300Y073179D01*
X064254Y073072D01*
X064192Y072974D01*
X064113Y072888D01*
X064021Y072817D01*
X063919Y072762D01*
X063808Y072726D01*
X063693Y072709D01*
X063652D01*
G54D11*
X002050Y073388D03*
G54D12*
X005987D03*
G54D13*
Y072709D02*
X006103Y072718D01*
X006215Y072747D01*
X006321Y072795D01*
X006417Y072861D01*
X006501Y072942D01*
X006569Y073036D01*
X006621Y073140D01*
X006654Y073252D01*
X006667Y073367D01*
X006661Y073484D01*
X006634Y073597D01*
X006589Y073704D01*
X006527Y073802D01*
X006448Y073888D01*
X006356Y073959D01*
X006254Y074014D01*
X006143Y074050D01*
X006028Y074067D01*
X005987D01*
X005871Y074058D01*
X005759Y074029D01*
X005653Y073981D01*
X005557Y073915D01*
X005473Y073834D01*
X005405Y073740D01*
X005353Y073636D01*
X005320Y073524D01*
X005307Y073408D01*
X005313Y073292D01*
X005339Y073179D01*
X005385Y073072D01*
X005447Y072974D01*
X005526Y072888D01*
X005618Y072817D01*
X005720Y072762D01*
X005831Y072726D01*
X005946Y072709D01*
X005987D01*
G54D11*
X002050Y000888D03*
G54D12*
X005987D03*
G54D13*
Y000209D02*
X006103Y000218D01*
X006215Y000247D01*
X006321Y000295D01*
X006417Y000361D01*
X006501Y000442D01*
X006569Y000536D01*
X006621Y000640D01*
X006654Y000752D01*
X006667Y000867D01*
X006661Y000984D01*
X006634Y001097D01*
X006589Y001204D01*
X006527Y001302D01*
X006448Y001388D01*
X006356Y001459D01*
X006254Y001514D01*
X006143Y001550D01*
X006028Y001567D01*
X005987D01*
X005871Y001558D01*
X005759Y001529D01*
X005653Y001481D01*
X005557Y001415D01*
X005473Y001334D01*
X005405Y001240D01*
X005353Y001136D01*
X005320Y001024D01*
X005307Y000908D01*
X005313Y000792D01*
X005339Y000679D01*
X005385Y000572D01*
X005447Y000474D01*
X005526Y000388D01*
X005618Y000317D01*
X005720Y000262D01*
X005831Y000226D01*
X005946Y000209D01*
X005987D01*
G54D10*
X008430Y072138D02*
G03X007800Y072138I-000315J000000D01*
X008430Y002138D02*
G02X007800Y002138I-000315J000000D01*
X016060Y072138D02*
G03X015430Y072138I-000315J000000D01*
X016060Y002138D02*
G02X015430Y002138I-000315J000000D01*
X023690Y072138D02*
G03X023060Y072138I-000315J000000D01*
X023690Y002138D02*
G02X023060Y002138I-000315J000000D01*
X031320Y072138D02*
G03X030690Y072138I-000315J000000D01*
X031320Y002138D02*
G02X030690Y002138I-000315J000000D01*
X038950Y072138D02*
G03X038320Y072138I-000315J000000D01*
X038950Y002138D02*
G02X038320Y002138I-000315J000000D01*
X046580Y072138D02*
G03X045950Y072138I-000315J000000D01*
X046580Y002138D02*
G02X045950Y002138I-000315J000000D01*
X054209Y072138D02*
G03X053580Y072138I-000315J000000D01*
X054209Y002138D02*
G02X053580Y002138I-000315J000000D01*
X061839Y072138D02*
G03X061209Y072138I-000315J000000D01*
X061839Y002138D02*
G02X061209Y002138I-000315J000000D01*
M02*
