*
%FSLAX24Y24*%
%MOIN*%
%ADD10C,0.043310*%
%ADD11C,0.059060*%
%IPPOS*%
%LNtop-paste.gbr*%
%LPD*%
G75*
G54D10*
X003178Y003969D02*
X003532D01*
X003178D03*
X003532D01*
D03*
Y004638D02*
X003178D01*
D03*
X003532D01*
D03*
Y005307D02*
X003178D01*
D03*
X003532D01*
D03*
X005068D02*
X005422D01*
X005068D03*
X005422D01*
D03*
Y004638D02*
X005068D01*
D03*
X005422D01*
D03*
Y003969D02*
X005068D01*
D03*
X005422D01*
D03*
X003178Y008969D02*
X003532D01*
X003178D03*
X003532D01*
D03*
Y009638D02*
X003178D01*
D03*
X003532D01*
D03*
Y010307D02*
X003178D01*
D03*
X003532D01*
D03*
X005068D02*
X005422D01*
X005068D03*
X005422D01*
D03*
Y009638D02*
X005068D01*
D03*
X005422D01*
D03*
Y008969D02*
X005068D01*
D03*
X005422D01*
D03*
X003178Y013969D02*
X003532D01*
X003178D03*
X003532D01*
D03*
Y014638D02*
X003178D01*
D03*
X003532D01*
D03*
Y015307D02*
X003178D01*
D03*
X003532D01*
D03*
X005068D02*
X005422D01*
X005068D03*
X005422D01*
D03*
Y014638D02*
X005068D01*
D03*
X005422D01*
D03*
Y013969D02*
X005068D01*
D03*
X005422D01*
D03*
X003178Y018969D02*
X003532D01*
X003178D03*
X003532D01*
D03*
Y019638D02*
X003178D01*
D03*
X003532D01*
D03*
Y020307D02*
X003178D01*
D03*
X003532D01*
D03*
X005068D02*
X005422D01*
X005068D03*
X005422D01*
D03*
Y019638D02*
X005068D01*
D03*
X005422D01*
D03*
Y018969D02*
X005068D01*
D03*
X005422D01*
D03*
X003178Y023969D02*
X003532D01*
X003178D03*
X003532D01*
D03*
Y024638D02*
X003178D01*
D03*
X003532D01*
D03*
Y025307D02*
X003178D01*
D03*
X003532D01*
D03*
X005068D02*
X005422D01*
X005068D03*
X005422D01*
D03*
Y024638D02*
X005068D01*
D03*
X005422D01*
D03*
Y023969D02*
X005068D01*
D03*
X005422D01*
D03*
X003178Y028969D02*
X003532D01*
X003178D03*
X003532D01*
D03*
Y029638D02*
X003178D01*
D03*
X003532D01*
D03*
Y030307D02*
X003178D01*
D03*
X003532D01*
D03*
X005068D02*
X005422D01*
X005068D03*
X005422D01*
D03*
Y029638D02*
X005068D01*
D03*
X005422D01*
D03*
Y028969D02*
X005068D01*
D03*
X005422D01*
D03*
X003178Y033969D02*
X003532D01*
X003178D03*
X003532D01*
D03*
Y034638D02*
X003178D01*
D03*
X003532D01*
D03*
Y035307D02*
X003178D01*
D03*
X003532D01*
D03*
X005068D02*
X005422D01*
X005068D03*
X005422D01*
D03*
Y034638D02*
X005068D01*
D03*
X005422D01*
D03*
Y033969D02*
X005068D01*
D03*
X005422D01*
D03*
X003178Y038969D02*
X003532D01*
X003178D03*
X003532D01*
D03*
Y039638D02*
X003178D01*
D03*
X003532D01*
D03*
Y040307D02*
X003178D01*
D03*
X003532D01*
D03*
X005068D02*
X005422D01*
X005068D03*
X005422D01*
D03*
Y039638D02*
X005068D01*
D03*
X005422D01*
D03*
Y038969D02*
X005068D01*
D03*
X005422D01*
D03*
X003178Y043969D02*
X003532D01*
X003178D03*
X003532D01*
D03*
Y044638D02*
X003178D01*
D03*
X003532D01*
D03*
Y045307D02*
X003178D01*
D03*
X003532D01*
D03*
X005068D02*
X005422D01*
X005068D03*
X005422D01*
D03*
Y044638D02*
X005068D01*
D03*
X005422D01*
D03*
Y043969D02*
X005068D01*
D03*
X005422D01*
D03*
X003178Y048969D02*
X003532D01*
X003178D03*
X003532D01*
D03*
Y049638D02*
X003178D01*
D03*
X003532D01*
D03*
Y050307D02*
X003178D01*
D03*
X003532D01*
D03*
X005068D02*
X005422D01*
X005068D03*
X005422D01*
D03*
Y049638D02*
X005068D01*
D03*
X005422D01*
D03*
Y048969D02*
X005068D01*
D03*
X005422D01*
D03*
X003178Y053969D02*
X003532D01*
X003178D03*
X003532D01*
D03*
Y054638D02*
X003178D01*
D03*
X003532D01*
D03*
Y055307D02*
X003178D01*
D03*
X003532D01*
D03*
X005068D02*
X005422D01*
X005068D03*
X005422D01*
D03*
Y054638D02*
X005068D01*
D03*
X005422D01*
D03*
Y053969D02*
X005068D01*
D03*
X005422D01*
D03*
X003178Y058969D02*
X003532D01*
X003178D03*
X003532D01*
D03*
Y059638D02*
X003178D01*
D03*
X003532D01*
D03*
Y060307D02*
X003178D01*
D03*
X003532D01*
D03*
X005068D02*
X005422D01*
X005068D03*
X005422D01*
D03*
Y059638D02*
X005068D01*
D03*
X005422D01*
D03*
Y058969D02*
X005068D01*
D03*
X005422D01*
D03*
X003178Y063969D02*
X003532D01*
X003178D03*
X003532D01*
D03*
Y064638D02*
X003178D01*
D03*
X003532D01*
D03*
Y065307D02*
X003178D01*
D03*
X003532D01*
D03*
X005068D02*
X005422D01*
X005068D03*
X005422D01*
D03*
Y064638D02*
X005068D01*
D03*
X005422D01*
D03*
Y063969D02*
X005068D01*
D03*
X005422D01*
D03*
X003178Y068969D02*
X003532D01*
X003178D03*
X003532D01*
D03*
Y069638D02*
X003178D01*
D03*
X003532D01*
D03*
Y070307D02*
X003178D01*
D03*
X003532D01*
D03*
X005068D02*
X005422D01*
X005068D03*
X005422D01*
D03*
Y069638D02*
X005068D01*
D03*
X005422D01*
D03*
Y068969D02*
X005068D01*
D03*
X005422D01*
D03*
X010808Y003969D02*
X011162D01*
X010808D03*
X011162D01*
D03*
Y004638D02*
X010808D01*
D03*
X011162D01*
D03*
Y005307D02*
X010808D01*
D03*
X011162D01*
D03*
X012698D02*
X013052D01*
X012698D03*
X013052D01*
D03*
Y004638D02*
X012698D01*
D03*
X013052D01*
D03*
Y003969D02*
X012698D01*
D03*
X013052D01*
D03*
X010808Y008969D02*
X011162D01*
X010808D03*
X011162D01*
D03*
Y009638D02*
X010808D01*
D03*
X011162D01*
D03*
Y010307D02*
X010808D01*
D03*
X011162D01*
D03*
X012698D02*
X013052D01*
X012698D03*
X013052D01*
D03*
Y009638D02*
X012698D01*
D03*
X013052D01*
D03*
Y008969D02*
X012698D01*
D03*
X013052D01*
D03*
X010808Y013969D02*
X011162D01*
X010808D03*
X011162D01*
D03*
Y014638D02*
X010808D01*
D03*
X011162D01*
D03*
Y015307D02*
X010808D01*
D03*
X011162D01*
D03*
X012698D02*
X013052D01*
X012698D03*
X013052D01*
D03*
Y014638D02*
X012698D01*
D03*
X013052D01*
D03*
Y013969D02*
X012698D01*
D03*
X013052D01*
D03*
X010808Y018969D02*
X011162D01*
X010808D03*
X011162D01*
D03*
Y019638D02*
X010808D01*
D03*
X011162D01*
D03*
Y020307D02*
X010808D01*
D03*
X011162D01*
D03*
X012698D02*
X013052D01*
X012698D03*
X013052D01*
D03*
Y019638D02*
X012698D01*
D03*
X013052D01*
D03*
Y018969D02*
X012698D01*
D03*
X013052D01*
D03*
X010808Y023969D02*
X011162D01*
X010808D03*
X011162D01*
D03*
Y024638D02*
X010808D01*
D03*
X011162D01*
D03*
Y025307D02*
X010808D01*
D03*
X011162D01*
D03*
X012698D02*
X013052D01*
X012698D03*
X013052D01*
D03*
Y024638D02*
X012698D01*
D03*
X013052D01*
D03*
Y023969D02*
X012698D01*
D03*
X013052D01*
D03*
X010808Y028969D02*
X011162D01*
X010808D03*
X011162D01*
D03*
Y029638D02*
X010808D01*
D03*
X011162D01*
D03*
Y030307D02*
X010808D01*
D03*
X011162D01*
D03*
X012698D02*
X013052D01*
X012698D03*
X013052D01*
D03*
Y029638D02*
X012698D01*
D03*
X013052D01*
D03*
Y028969D02*
X012698D01*
D03*
X013052D01*
D03*
X010808Y033969D02*
X011162D01*
X010808D03*
X011162D01*
D03*
Y034638D02*
X010808D01*
D03*
X011162D01*
D03*
Y035307D02*
X010808D01*
D03*
X011162D01*
D03*
X012698D02*
X013052D01*
X012698D03*
X013052D01*
D03*
Y034638D02*
X012698D01*
D03*
X013052D01*
D03*
Y033969D02*
X012698D01*
D03*
X013052D01*
D03*
X010808Y038969D02*
X011162D01*
X010808D03*
X011162D01*
D03*
Y039638D02*
X010808D01*
D03*
X011162D01*
D03*
Y040307D02*
X010808D01*
D03*
X011162D01*
D03*
X012698D02*
X013052D01*
X012698D03*
X013052D01*
D03*
Y039638D02*
X012698D01*
D03*
X013052D01*
D03*
Y038969D02*
X012698D01*
D03*
X013052D01*
D03*
X010808Y043969D02*
X011162D01*
X010808D03*
X011162D01*
D03*
Y044638D02*
X010808D01*
D03*
X011162D01*
D03*
Y045307D02*
X010808D01*
D03*
X011162D01*
D03*
X012698D02*
X013052D01*
X012698D03*
X013052D01*
D03*
Y044638D02*
X012698D01*
D03*
X013052D01*
D03*
Y043969D02*
X012698D01*
D03*
X013052D01*
D03*
X010808Y048969D02*
X011162D01*
X010808D03*
X011162D01*
D03*
Y049638D02*
X010808D01*
D03*
X011162D01*
D03*
Y050307D02*
X010808D01*
D03*
X011162D01*
D03*
X012698D02*
X013052D01*
X012698D03*
X013052D01*
D03*
Y049638D02*
X012698D01*
D03*
X013052D01*
D03*
Y048969D02*
X012698D01*
D03*
X013052D01*
D03*
X010808Y053969D02*
X011162D01*
X010808D03*
X011162D01*
D03*
Y054638D02*
X010808D01*
D03*
X011162D01*
D03*
Y055307D02*
X010808D01*
D03*
X011162D01*
D03*
X012698D02*
X013052D01*
X012698D03*
X013052D01*
D03*
Y054638D02*
X012698D01*
D03*
X013052D01*
D03*
Y053969D02*
X012698D01*
D03*
X013052D01*
D03*
X010808Y058969D02*
X011162D01*
X010808D03*
X011162D01*
D03*
Y059638D02*
X010808D01*
D03*
X011162D01*
D03*
Y060307D02*
X010808D01*
D03*
X011162D01*
D03*
X012698D02*
X013052D01*
X012698D03*
X013052D01*
D03*
Y059638D02*
X012698D01*
D03*
X013052D01*
D03*
Y058969D02*
X012698D01*
D03*
X013052D01*
D03*
X010808Y063969D02*
X011162D01*
X010808D03*
X011162D01*
D03*
Y064638D02*
X010808D01*
D03*
X011162D01*
D03*
Y065307D02*
X010808D01*
D03*
X011162D01*
D03*
X012698D02*
X013052D01*
X012698D03*
X013052D01*
D03*
Y064638D02*
X012698D01*
D03*
X013052D01*
D03*
Y063969D02*
X012698D01*
D03*
X013052D01*
D03*
X010808Y068969D02*
X011162D01*
X010808D03*
X011162D01*
D03*
Y069638D02*
X010808D01*
D03*
X011162D01*
D03*
Y070307D02*
X010808D01*
D03*
X011162D01*
D03*
X012698D02*
X013052D01*
X012698D03*
X013052D01*
D03*
Y069638D02*
X012698D01*
D03*
X013052D01*
D03*
Y068969D02*
X012698D01*
D03*
X013052D01*
D03*
X018438Y003969D02*
X018792D01*
X018438D03*
X018792D01*
D03*
Y004638D02*
X018438D01*
D03*
X018792D01*
D03*
Y005307D02*
X018438D01*
D03*
X018792D01*
D03*
X020328D02*
X020682D01*
X020328D03*
X020682D01*
D03*
Y004638D02*
X020328D01*
D03*
X020682D01*
D03*
Y003969D02*
X020328D01*
D03*
X020682D01*
D03*
X018438Y008969D02*
X018792D01*
X018438D03*
X018792D01*
D03*
Y009638D02*
X018438D01*
D03*
X018792D01*
D03*
Y010307D02*
X018438D01*
D03*
X018792D01*
D03*
X020328D02*
X020682D01*
X020328D03*
X020682D01*
D03*
Y009638D02*
X020328D01*
D03*
X020682D01*
D03*
Y008969D02*
X020328D01*
D03*
X020682D01*
D03*
X018438Y013969D02*
X018792D01*
X018438D03*
X018792D01*
D03*
Y014638D02*
X018438D01*
D03*
X018792D01*
D03*
Y015307D02*
X018438D01*
D03*
X018792D01*
D03*
X020328D02*
X020682D01*
X020328D03*
X020682D01*
D03*
Y014638D02*
X020328D01*
D03*
X020682D01*
D03*
Y013969D02*
X020328D01*
D03*
X020682D01*
D03*
X018438Y018969D02*
X018792D01*
X018438D03*
X018792D01*
D03*
Y019638D02*
X018438D01*
D03*
X018792D01*
D03*
Y020307D02*
X018438D01*
D03*
X018792D01*
D03*
X020328D02*
X020682D01*
X020328D03*
X020682D01*
D03*
Y019638D02*
X020328D01*
D03*
X020682D01*
D03*
Y018969D02*
X020328D01*
D03*
X020682D01*
D03*
X018438Y023969D02*
X018792D01*
X018438D03*
X018792D01*
D03*
Y024638D02*
X018438D01*
D03*
X018792D01*
D03*
Y025307D02*
X018438D01*
D03*
X018792D01*
D03*
X020328D02*
X020682D01*
X020328D03*
X020682D01*
D03*
Y024638D02*
X020328D01*
D03*
X020682D01*
D03*
Y023969D02*
X020328D01*
D03*
X020682D01*
D03*
X018438Y028969D02*
X018792D01*
X018438D03*
X018792D01*
D03*
Y029638D02*
X018438D01*
D03*
X018792D01*
D03*
Y030307D02*
X018438D01*
D03*
X018792D01*
D03*
X020328D02*
X020682D01*
X020328D03*
X020682D01*
D03*
Y029638D02*
X020328D01*
D03*
X020682D01*
D03*
Y028969D02*
X020328D01*
D03*
X020682D01*
D03*
X018438Y033969D02*
X018792D01*
X018438D03*
X018792D01*
D03*
Y034638D02*
X018438D01*
D03*
X018792D01*
D03*
Y035307D02*
X018438D01*
D03*
X018792D01*
D03*
X020328D02*
X020682D01*
X020328D03*
X020682D01*
D03*
Y034638D02*
X020328D01*
D03*
X020682D01*
D03*
Y033969D02*
X020328D01*
D03*
X020682D01*
D03*
X018438Y038969D02*
X018792D01*
X018438D03*
X018792D01*
D03*
Y039638D02*
X018438D01*
D03*
X018792D01*
D03*
Y040307D02*
X018438D01*
D03*
X018792D01*
D03*
X020328D02*
X020682D01*
X020328D03*
X020682D01*
D03*
Y039638D02*
X020328D01*
D03*
X020682D01*
D03*
Y038969D02*
X020328D01*
D03*
X020682D01*
D03*
X018438Y043969D02*
X018792D01*
X018438D03*
X018792D01*
D03*
Y044638D02*
X018438D01*
D03*
X018792D01*
D03*
Y045307D02*
X018438D01*
D03*
X018792D01*
D03*
X020328D02*
X020682D01*
X020328D03*
X020682D01*
D03*
Y044638D02*
X020328D01*
D03*
X020682D01*
D03*
Y043969D02*
X020328D01*
D03*
X020682D01*
D03*
X018438Y048969D02*
X018792D01*
X018438D03*
X018792D01*
D03*
Y049638D02*
X018438D01*
D03*
X018792D01*
D03*
Y050307D02*
X018438D01*
D03*
X018792D01*
D03*
X020328D02*
X020682D01*
X020328D03*
X020682D01*
D03*
Y049638D02*
X020328D01*
D03*
X020682D01*
D03*
Y048969D02*
X020328D01*
D03*
X020682D01*
D03*
X018438Y053969D02*
X018792D01*
X018438D03*
X018792D01*
D03*
Y054638D02*
X018438D01*
D03*
X018792D01*
D03*
Y055307D02*
X018438D01*
D03*
X018792D01*
D03*
X020328D02*
X020682D01*
X020328D03*
X020682D01*
D03*
Y054638D02*
X020328D01*
D03*
X020682D01*
D03*
Y053969D02*
X020328D01*
D03*
X020682D01*
D03*
X018438Y058969D02*
X018792D01*
X018438D03*
X018792D01*
D03*
Y059638D02*
X018438D01*
D03*
X018792D01*
D03*
Y060307D02*
X018438D01*
D03*
X018792D01*
D03*
X020328D02*
X020682D01*
X020328D03*
X020682D01*
D03*
Y059638D02*
X020328D01*
D03*
X020682D01*
D03*
Y058969D02*
X020328D01*
D03*
X020682D01*
D03*
X018438Y063969D02*
X018792D01*
X018438D03*
X018792D01*
D03*
Y064638D02*
X018438D01*
D03*
X018792D01*
D03*
Y065307D02*
X018438D01*
D03*
X018792D01*
D03*
X020328D02*
X020682D01*
X020328D03*
X020682D01*
D03*
Y064638D02*
X020328D01*
D03*
X020682D01*
D03*
Y063969D02*
X020328D01*
D03*
X020682D01*
D03*
X018438Y068969D02*
X018792D01*
X018438D03*
X018792D01*
D03*
Y069638D02*
X018438D01*
D03*
X018792D01*
D03*
Y070307D02*
X018438D01*
D03*
X018792D01*
D03*
X020328D02*
X020682D01*
X020328D03*
X020682D01*
D03*
Y069638D02*
X020328D01*
D03*
X020682D01*
D03*
Y068969D02*
X020328D01*
D03*
X020682D01*
D03*
X026068Y003969D02*
X026422D01*
X026068D03*
X026422D01*
D03*
Y004638D02*
X026068D01*
D03*
X026422D01*
D03*
Y005307D02*
X026068D01*
D03*
X026422D01*
D03*
X027958D02*
X028312D01*
X027958D03*
X028312D01*
D03*
Y004638D02*
X027958D01*
D03*
X028312D01*
D03*
Y003969D02*
X027958D01*
D03*
X028312D01*
D03*
X026068Y008969D02*
X026422D01*
X026068D03*
X026422D01*
D03*
Y009638D02*
X026068D01*
D03*
X026422D01*
D03*
Y010307D02*
X026068D01*
D03*
X026422D01*
D03*
X027958D02*
X028312D01*
X027958D03*
X028312D01*
D03*
Y009638D02*
X027958D01*
D03*
X028312D01*
D03*
Y008969D02*
X027958D01*
D03*
X028312D01*
D03*
X026068Y013969D02*
X026422D01*
X026068D03*
X026422D01*
D03*
Y014638D02*
X026068D01*
D03*
X026422D01*
D03*
Y015307D02*
X026068D01*
D03*
X026422D01*
D03*
X027958D02*
X028312D01*
X027958D03*
X028312D01*
D03*
Y014638D02*
X027958D01*
D03*
X028312D01*
D03*
Y013969D02*
X027958D01*
D03*
X028312D01*
D03*
X026068Y018969D02*
X026422D01*
X026068D03*
X026422D01*
D03*
Y019638D02*
X026068D01*
D03*
X026422D01*
D03*
Y020307D02*
X026068D01*
D03*
X026422D01*
D03*
X027958D02*
X028312D01*
X027958D03*
X028312D01*
D03*
Y019638D02*
X027958D01*
D03*
X028312D01*
D03*
Y018969D02*
X027958D01*
D03*
X028312D01*
D03*
X026068Y023969D02*
X026422D01*
X026068D03*
X026422D01*
D03*
Y024638D02*
X026068D01*
D03*
X026422D01*
D03*
Y025307D02*
X026068D01*
D03*
X026422D01*
D03*
X027958D02*
X028312D01*
X027958D03*
X028312D01*
D03*
Y024638D02*
X027958D01*
D03*
X028312D01*
D03*
Y023969D02*
X027958D01*
D03*
X028312D01*
D03*
X026068Y028969D02*
X026422D01*
X026068D03*
X026422D01*
D03*
Y029638D02*
X026068D01*
D03*
X026422D01*
D03*
Y030307D02*
X026068D01*
D03*
X026422D01*
D03*
X027958D02*
X028312D01*
X027958D03*
X028312D01*
D03*
Y029638D02*
X027958D01*
D03*
X028312D01*
D03*
Y028969D02*
X027958D01*
D03*
X028312D01*
D03*
X026068Y033969D02*
X026422D01*
X026068D03*
X026422D01*
D03*
Y034638D02*
X026068D01*
D03*
X026422D01*
D03*
Y035307D02*
X026068D01*
D03*
X026422D01*
D03*
X027958D02*
X028312D01*
X027958D03*
X028312D01*
D03*
Y034638D02*
X027958D01*
D03*
X028312D01*
D03*
Y033969D02*
X027958D01*
D03*
X028312D01*
D03*
X026068Y038969D02*
X026422D01*
X026068D03*
X026422D01*
D03*
Y039638D02*
X026068D01*
D03*
X026422D01*
D03*
Y040307D02*
X026068D01*
D03*
X026422D01*
D03*
X027958D02*
X028312D01*
X027958D03*
X028312D01*
D03*
Y039638D02*
X027958D01*
D03*
X028312D01*
D03*
Y038969D02*
X027958D01*
D03*
X028312D01*
D03*
X026068Y043969D02*
X026422D01*
X026068D03*
X026422D01*
D03*
Y044638D02*
X026068D01*
D03*
X026422D01*
D03*
Y045307D02*
X026068D01*
D03*
X026422D01*
D03*
X027958D02*
X028312D01*
X027958D03*
X028312D01*
D03*
Y044638D02*
X027958D01*
D03*
X028312D01*
D03*
Y043969D02*
X027958D01*
D03*
X028312D01*
D03*
X026068Y048969D02*
X026422D01*
X026068D03*
X026422D01*
D03*
Y049638D02*
X026068D01*
D03*
X026422D01*
D03*
Y050307D02*
X026068D01*
D03*
X026422D01*
D03*
X027958D02*
X028312D01*
X027958D03*
X028312D01*
D03*
Y049638D02*
X027958D01*
D03*
X028312D01*
D03*
Y048969D02*
X027958D01*
D03*
X028312D01*
D03*
X026068Y053969D02*
X026422D01*
X026068D03*
X026422D01*
D03*
Y054638D02*
X026068D01*
D03*
X026422D01*
D03*
Y055307D02*
X026068D01*
D03*
X026422D01*
D03*
X027958D02*
X028312D01*
X027958D03*
X028312D01*
D03*
Y054638D02*
X027958D01*
D03*
X028312D01*
D03*
Y053969D02*
X027958D01*
D03*
X028312D01*
D03*
X026068Y058969D02*
X026422D01*
X026068D03*
X026422D01*
D03*
Y059638D02*
X026068D01*
D03*
X026422D01*
D03*
Y060307D02*
X026068D01*
D03*
X026422D01*
D03*
X027958D02*
X028312D01*
X027958D03*
X028312D01*
D03*
Y059638D02*
X027958D01*
D03*
X028312D01*
D03*
Y058969D02*
X027958D01*
D03*
X028312D01*
D03*
X026068Y063969D02*
X026422D01*
X026068D03*
X026422D01*
D03*
Y064638D02*
X026068D01*
D03*
X026422D01*
D03*
Y065307D02*
X026068D01*
D03*
X026422D01*
D03*
X027958D02*
X028312D01*
X027958D03*
X028312D01*
D03*
Y064638D02*
X027958D01*
D03*
X028312D01*
D03*
Y063969D02*
X027958D01*
D03*
X028312D01*
D03*
X026068Y068969D02*
X026422D01*
X026068D03*
X026422D01*
D03*
Y069638D02*
X026068D01*
D03*
X026422D01*
D03*
Y070307D02*
X026068D01*
D03*
X026422D01*
D03*
X027958D02*
X028312D01*
X027958D03*
X028312D01*
D03*
Y069638D02*
X027958D01*
D03*
X028312D01*
D03*
Y068969D02*
X027958D01*
D03*
X028312D01*
D03*
X033698Y003969D02*
X034052D01*
X033698D03*
X034052D01*
D03*
Y004638D02*
X033698D01*
D03*
X034052D01*
D03*
Y005307D02*
X033698D01*
D03*
X034052D01*
D03*
X035588D02*
X035942D01*
X035588D03*
X035942D01*
D03*
Y004638D02*
X035588D01*
D03*
X035942D01*
D03*
Y003969D02*
X035588D01*
D03*
X035942D01*
D03*
X033698Y008969D02*
X034052D01*
X033698D03*
X034052D01*
D03*
Y009638D02*
X033698D01*
D03*
X034052D01*
D03*
Y010307D02*
X033698D01*
D03*
X034052D01*
D03*
X035588D02*
X035942D01*
X035588D03*
X035942D01*
D03*
Y009638D02*
X035588D01*
D03*
X035942D01*
D03*
Y008969D02*
X035588D01*
D03*
X035942D01*
D03*
X033698Y013969D02*
X034052D01*
X033698D03*
X034052D01*
D03*
Y014638D02*
X033698D01*
D03*
X034052D01*
D03*
Y015307D02*
X033698D01*
D03*
X034052D01*
D03*
X035588D02*
X035942D01*
X035588D03*
X035942D01*
D03*
Y014638D02*
X035588D01*
D03*
X035942D01*
D03*
Y013969D02*
X035588D01*
D03*
X035942D01*
D03*
X033698Y018969D02*
X034052D01*
X033698D03*
X034052D01*
D03*
Y019638D02*
X033698D01*
D03*
X034052D01*
D03*
Y020307D02*
X033698D01*
D03*
X034052D01*
D03*
X035588D02*
X035942D01*
X035588D03*
X035942D01*
D03*
Y019638D02*
X035588D01*
D03*
X035942D01*
D03*
Y018969D02*
X035588D01*
D03*
X035942D01*
D03*
X033698Y023969D02*
X034052D01*
X033698D03*
X034052D01*
D03*
Y024638D02*
X033698D01*
D03*
X034052D01*
D03*
Y025307D02*
X033698D01*
D03*
X034052D01*
D03*
X035588D02*
X035942D01*
X035588D03*
X035942D01*
D03*
Y024638D02*
X035588D01*
D03*
X035942D01*
D03*
Y023969D02*
X035588D01*
D03*
X035942D01*
D03*
X033698Y028969D02*
X034052D01*
X033698D03*
X034052D01*
D03*
Y029638D02*
X033698D01*
D03*
X034052D01*
D03*
Y030307D02*
X033698D01*
D03*
X034052D01*
D03*
X035588D02*
X035942D01*
X035588D03*
X035942D01*
D03*
Y029638D02*
X035588D01*
D03*
X035942D01*
D03*
Y028969D02*
X035588D01*
D03*
X035942D01*
D03*
X033698Y033969D02*
X034052D01*
X033698D03*
X034052D01*
D03*
Y034638D02*
X033698D01*
D03*
X034052D01*
D03*
Y035307D02*
X033698D01*
D03*
X034052D01*
D03*
X035588D02*
X035942D01*
X035588D03*
X035942D01*
D03*
Y034638D02*
X035588D01*
D03*
X035942D01*
D03*
Y033969D02*
X035588D01*
D03*
X035942D01*
D03*
X033698Y038969D02*
X034052D01*
X033698D03*
X034052D01*
D03*
Y039638D02*
X033698D01*
D03*
X034052D01*
D03*
Y040307D02*
X033698D01*
D03*
X034052D01*
D03*
X035588D02*
X035942D01*
X035588D03*
X035942D01*
D03*
Y039638D02*
X035588D01*
D03*
X035942D01*
D03*
Y038969D02*
X035588D01*
D03*
X035942D01*
D03*
X033698Y043969D02*
X034052D01*
X033698D03*
X034052D01*
D03*
Y044638D02*
X033698D01*
D03*
X034052D01*
D03*
Y045307D02*
X033698D01*
D03*
X034052D01*
D03*
X035588D02*
X035942D01*
X035588D03*
X035942D01*
D03*
Y044638D02*
X035588D01*
D03*
X035942D01*
D03*
Y043969D02*
X035588D01*
D03*
X035942D01*
D03*
X033698Y048969D02*
X034052D01*
X033698D03*
X034052D01*
D03*
Y049638D02*
X033698D01*
D03*
X034052D01*
D03*
Y050307D02*
X033698D01*
D03*
X034052D01*
D03*
X035588D02*
X035942D01*
X035588D03*
X035942D01*
D03*
Y049638D02*
X035588D01*
D03*
X035942D01*
D03*
Y048969D02*
X035588D01*
D03*
X035942D01*
D03*
X033698Y053969D02*
X034052D01*
X033698D03*
X034052D01*
D03*
Y054638D02*
X033698D01*
D03*
X034052D01*
D03*
Y055307D02*
X033698D01*
D03*
X034052D01*
D03*
X035588D02*
X035942D01*
X035588D03*
X035942D01*
D03*
Y054638D02*
X035588D01*
D03*
X035942D01*
D03*
Y053969D02*
X035588D01*
D03*
X035942D01*
D03*
X033698Y058969D02*
X034052D01*
X033698D03*
X034052D01*
D03*
Y059638D02*
X033698D01*
D03*
X034052D01*
D03*
Y060307D02*
X033698D01*
D03*
X034052D01*
D03*
X035588D02*
X035942D01*
X035588D03*
X035942D01*
D03*
Y059638D02*
X035588D01*
D03*
X035942D01*
D03*
Y058969D02*
X035588D01*
D03*
X035942D01*
D03*
X033698Y063969D02*
X034052D01*
X033698D03*
X034052D01*
D03*
Y064638D02*
X033698D01*
D03*
X034052D01*
D03*
Y065307D02*
X033698D01*
D03*
X034052D01*
D03*
X035588D02*
X035942D01*
X035588D03*
X035942D01*
D03*
Y064638D02*
X035588D01*
D03*
X035942D01*
D03*
Y063969D02*
X035588D01*
D03*
X035942D01*
D03*
X033698Y068969D02*
X034052D01*
X033698D03*
X034052D01*
D03*
Y069638D02*
X033698D01*
D03*
X034052D01*
D03*
Y070307D02*
X033698D01*
D03*
X034052D01*
D03*
X035588D02*
X035942D01*
X035588D03*
X035942D01*
D03*
Y069638D02*
X035588D01*
D03*
X035942D01*
D03*
Y068969D02*
X035588D01*
D03*
X035942D01*
D03*
X041328Y003969D02*
X041682D01*
X041328D03*
X041682D01*
D03*
Y004638D02*
X041328D01*
D03*
X041682D01*
D03*
Y005307D02*
X041328D01*
D03*
X041682D01*
D03*
X043218D02*
X043572D01*
X043218D03*
X043572D01*
D03*
Y004638D02*
X043218D01*
D03*
X043572D01*
D03*
Y003969D02*
X043218D01*
D03*
X043572D01*
D03*
X041328Y008969D02*
X041682D01*
X041328D03*
X041682D01*
D03*
Y009638D02*
X041328D01*
D03*
X041682D01*
D03*
Y010307D02*
X041328D01*
D03*
X041682D01*
D03*
X043218D02*
X043572D01*
X043218D03*
X043572D01*
D03*
Y009638D02*
X043218D01*
D03*
X043572D01*
D03*
Y008969D02*
X043218D01*
D03*
X043572D01*
D03*
X041328Y013969D02*
X041682D01*
X041328D03*
X041682D01*
D03*
Y014638D02*
X041328D01*
D03*
X041682D01*
D03*
Y015307D02*
X041328D01*
D03*
X041682D01*
D03*
X043218D02*
X043572D01*
X043218D03*
X043572D01*
D03*
Y014638D02*
X043218D01*
D03*
X043572D01*
D03*
Y013969D02*
X043218D01*
D03*
X043572D01*
D03*
X041328Y018969D02*
X041682D01*
X041328D03*
X041682D01*
D03*
Y019638D02*
X041328D01*
D03*
X041682D01*
D03*
Y020307D02*
X041328D01*
D03*
X041682D01*
D03*
X043218D02*
X043572D01*
X043218D03*
X043572D01*
D03*
Y019638D02*
X043218D01*
D03*
X043572D01*
D03*
Y018969D02*
X043218D01*
D03*
X043572D01*
D03*
X041328Y023969D02*
X041682D01*
X041328D03*
X041682D01*
D03*
Y024638D02*
X041328D01*
D03*
X041682D01*
D03*
Y025307D02*
X041328D01*
D03*
X041682D01*
D03*
X043218D02*
X043572D01*
X043218D03*
X043572D01*
D03*
Y024638D02*
X043218D01*
D03*
X043572D01*
D03*
Y023969D02*
X043218D01*
D03*
X043572D01*
D03*
X041328Y028969D02*
X041682D01*
X041328D03*
X041682D01*
D03*
Y029638D02*
X041328D01*
D03*
X041682D01*
D03*
Y030307D02*
X041328D01*
D03*
X041682D01*
D03*
X043218D02*
X043572D01*
X043218D03*
X043572D01*
D03*
Y029638D02*
X043218D01*
D03*
X043572D01*
D03*
Y028969D02*
X043218D01*
D03*
X043572D01*
D03*
X041328Y033969D02*
X041682D01*
X041328D03*
X041682D01*
D03*
Y034638D02*
X041328D01*
D03*
X041682D01*
D03*
Y035307D02*
X041328D01*
D03*
X041682D01*
D03*
X043218D02*
X043572D01*
X043218D03*
X043572D01*
D03*
Y034638D02*
X043218D01*
D03*
X043572D01*
D03*
Y033969D02*
X043218D01*
D03*
X043572D01*
D03*
X041328Y038969D02*
X041682D01*
X041328D03*
X041682D01*
D03*
Y039638D02*
X041328D01*
D03*
X041682D01*
D03*
Y040307D02*
X041328D01*
D03*
X041682D01*
D03*
X043218D02*
X043572D01*
X043218D03*
X043572D01*
D03*
Y039638D02*
X043218D01*
D03*
X043572D01*
D03*
Y038969D02*
X043218D01*
D03*
X043572D01*
D03*
X041328Y043969D02*
X041682D01*
X041328D03*
X041682D01*
D03*
Y044638D02*
X041328D01*
D03*
X041682D01*
D03*
Y045307D02*
X041328D01*
D03*
X041682D01*
D03*
X043218D02*
X043572D01*
X043218D03*
X043572D01*
D03*
Y044638D02*
X043218D01*
D03*
X043572D01*
D03*
Y043969D02*
X043218D01*
D03*
X043572D01*
D03*
X041328Y048969D02*
X041682D01*
X041328D03*
X041682D01*
D03*
Y049638D02*
X041328D01*
D03*
X041682D01*
D03*
Y050307D02*
X041328D01*
D03*
X041682D01*
D03*
X043218D02*
X043572D01*
X043218D03*
X043572D01*
D03*
Y049638D02*
X043218D01*
D03*
X043572D01*
D03*
Y048969D02*
X043218D01*
D03*
X043572D01*
D03*
X041328Y053969D02*
X041682D01*
X041328D03*
X041682D01*
D03*
Y054638D02*
X041328D01*
D03*
X041682D01*
D03*
Y055307D02*
X041328D01*
D03*
X041682D01*
D03*
X043218D02*
X043572D01*
X043218D03*
X043572D01*
D03*
Y054638D02*
X043218D01*
D03*
X043572D01*
D03*
Y053969D02*
X043218D01*
D03*
X043572D01*
D03*
X041328Y058969D02*
X041682D01*
X041328D03*
X041682D01*
D03*
Y059638D02*
X041328D01*
D03*
X041682D01*
D03*
Y060307D02*
X041328D01*
D03*
X041682D01*
D03*
X043218D02*
X043572D01*
X043218D03*
X043572D01*
D03*
Y059638D02*
X043218D01*
D03*
X043572D01*
D03*
Y058969D02*
X043218D01*
D03*
X043572D01*
D03*
X041328Y063969D02*
X041682D01*
X041328D03*
X041682D01*
D03*
Y064638D02*
X041328D01*
D03*
X041682D01*
D03*
Y065307D02*
X041328D01*
D03*
X041682D01*
D03*
X043218D02*
X043572D01*
X043218D03*
X043572D01*
D03*
Y064638D02*
X043218D01*
D03*
X043572D01*
D03*
Y063969D02*
X043218D01*
D03*
X043572D01*
D03*
X041328Y068969D02*
X041682D01*
X041328D03*
X041682D01*
D03*
Y069638D02*
X041328D01*
D03*
X041682D01*
D03*
Y070307D02*
X041328D01*
D03*
X041682D01*
D03*
X043218D02*
X043572D01*
X043218D03*
X043572D01*
D03*
Y069638D02*
X043218D01*
D03*
X043572D01*
D03*
Y068969D02*
X043218D01*
D03*
X043572D01*
D03*
X048958Y003969D02*
X049312D01*
X048958D03*
X049312D01*
D03*
Y004638D02*
X048958D01*
D03*
X049312D01*
D03*
Y005307D02*
X048958D01*
D03*
X049312D01*
D03*
X050848D02*
X051202D01*
X050848D03*
X051202D01*
D03*
Y004638D02*
X050848D01*
D03*
X051202D01*
D03*
Y003969D02*
X050848D01*
D03*
X051202D01*
D03*
X048958Y008969D02*
X049312D01*
X048958D03*
X049312D01*
D03*
Y009638D02*
X048958D01*
D03*
X049312D01*
D03*
Y010307D02*
X048958D01*
D03*
X049312D01*
D03*
X050848D02*
X051202D01*
X050848D03*
X051202D01*
D03*
Y009638D02*
X050848D01*
D03*
X051202D01*
D03*
Y008969D02*
X050848D01*
D03*
X051202D01*
D03*
X048958Y013969D02*
X049312D01*
X048958D03*
X049312D01*
D03*
Y014638D02*
X048958D01*
D03*
X049312D01*
D03*
Y015307D02*
X048958D01*
D03*
X049312D01*
D03*
X050848D02*
X051202D01*
X050848D03*
X051202D01*
D03*
Y014638D02*
X050848D01*
D03*
X051202D01*
D03*
Y013969D02*
X050848D01*
D03*
X051202D01*
D03*
X048958Y018969D02*
X049312D01*
X048958D03*
X049312D01*
D03*
Y019638D02*
X048958D01*
D03*
X049312D01*
D03*
Y020307D02*
X048958D01*
D03*
X049312D01*
D03*
X050848D02*
X051202D01*
X050848D03*
X051202D01*
D03*
Y019638D02*
X050848D01*
D03*
X051202D01*
D03*
Y018969D02*
X050848D01*
D03*
X051202D01*
D03*
X048958Y023969D02*
X049312D01*
X048958D03*
X049312D01*
D03*
Y024638D02*
X048958D01*
D03*
X049312D01*
D03*
Y025307D02*
X048958D01*
D03*
X049312D01*
D03*
X050848D02*
X051202D01*
X050848D03*
X051202D01*
D03*
Y024638D02*
X050848D01*
D03*
X051202D01*
D03*
Y023969D02*
X050848D01*
D03*
X051202D01*
D03*
X048958Y028969D02*
X049312D01*
X048958D03*
X049312D01*
D03*
Y029638D02*
X048958D01*
D03*
X049312D01*
D03*
Y030307D02*
X048958D01*
D03*
X049312D01*
D03*
X050848D02*
X051202D01*
X050848D03*
X051202D01*
D03*
Y029638D02*
X050848D01*
D03*
X051202D01*
D03*
Y028969D02*
X050848D01*
D03*
X051202D01*
D03*
X048958Y033969D02*
X049312D01*
X048958D03*
X049312D01*
D03*
Y034638D02*
X048958D01*
D03*
X049312D01*
D03*
Y035307D02*
X048958D01*
D03*
X049312D01*
D03*
X050848D02*
X051202D01*
X050848D03*
X051202D01*
D03*
Y034638D02*
X050848D01*
D03*
X051202D01*
D03*
Y033969D02*
X050848D01*
D03*
X051202D01*
D03*
X048958Y038969D02*
X049312D01*
X048958D03*
X049312D01*
D03*
Y039638D02*
X048958D01*
D03*
X049312D01*
D03*
Y040307D02*
X048958D01*
D03*
X049312D01*
D03*
X050848D02*
X051202D01*
X050848D03*
X051202D01*
D03*
Y039638D02*
X050848D01*
D03*
X051202D01*
D03*
Y038969D02*
X050848D01*
D03*
X051202D01*
D03*
X048958Y043969D02*
X049312D01*
X048958D03*
X049312D01*
D03*
Y044638D02*
X048958D01*
D03*
X049312D01*
D03*
Y045307D02*
X048958D01*
D03*
X049312D01*
D03*
X050848D02*
X051202D01*
X050848D03*
X051202D01*
D03*
Y044638D02*
X050848D01*
D03*
X051202D01*
D03*
Y043969D02*
X050848D01*
D03*
X051202D01*
D03*
X048958Y048969D02*
X049312D01*
X048958D03*
X049312D01*
D03*
Y049638D02*
X048958D01*
D03*
X049312D01*
D03*
Y050307D02*
X048958D01*
D03*
X049312D01*
D03*
X050848D02*
X051202D01*
X050848D03*
X051202D01*
D03*
Y049638D02*
X050848D01*
D03*
X051202D01*
D03*
Y048969D02*
X050848D01*
D03*
X051202D01*
D03*
X048958Y053969D02*
X049312D01*
X048958D03*
X049312D01*
D03*
Y054638D02*
X048958D01*
D03*
X049312D01*
D03*
Y055307D02*
X048958D01*
D03*
X049312D01*
D03*
X050848D02*
X051202D01*
X050848D03*
X051202D01*
D03*
Y054638D02*
X050848D01*
D03*
X051202D01*
D03*
Y053969D02*
X050848D01*
D03*
X051202D01*
D03*
X048958Y058969D02*
X049312D01*
X048958D03*
X049312D01*
D03*
Y059638D02*
X048958D01*
D03*
X049312D01*
D03*
Y060307D02*
X048958D01*
D03*
X049312D01*
D03*
X050848D02*
X051202D01*
X050848D03*
X051202D01*
D03*
Y059638D02*
X050848D01*
D03*
X051202D01*
D03*
Y058969D02*
X050848D01*
D03*
X051202D01*
D03*
X048958Y063969D02*
X049312D01*
X048958D03*
X049312D01*
D03*
Y064638D02*
X048958D01*
D03*
X049312D01*
D03*
Y065307D02*
X048958D01*
D03*
X049312D01*
D03*
X050848D02*
X051202D01*
X050848D03*
X051202D01*
D03*
Y064638D02*
X050848D01*
D03*
X051202D01*
D03*
Y063969D02*
X050848D01*
D03*
X051202D01*
D03*
X048958Y068969D02*
X049312D01*
X048958D03*
X049312D01*
D03*
Y069638D02*
X048958D01*
D03*
X049312D01*
D03*
Y070307D02*
X048958D01*
D03*
X049312D01*
D03*
X050848D02*
X051202D01*
X050848D03*
X051202D01*
D03*
Y069638D02*
X050848D01*
D03*
X051202D01*
D03*
Y068969D02*
X050848D01*
D03*
X051202D01*
D03*
X056588Y003969D02*
X056942D01*
X056588D03*
X056942D01*
D03*
Y004638D02*
X056588D01*
D03*
X056942D01*
D03*
Y005307D02*
X056588D01*
D03*
X056942D01*
D03*
X058478D02*
X058832D01*
X058478D03*
X058832D01*
D03*
Y004638D02*
X058478D01*
D03*
X058832D01*
D03*
Y003969D02*
X058478D01*
D03*
X058832D01*
D03*
X056588Y008969D02*
X056942D01*
X056588D03*
X056942D01*
D03*
Y009638D02*
X056588D01*
D03*
X056942D01*
D03*
Y010307D02*
X056588D01*
D03*
X056942D01*
D03*
X058478D02*
X058832D01*
X058478D03*
X058832D01*
D03*
Y009638D02*
X058478D01*
D03*
X058832D01*
D03*
Y008969D02*
X058478D01*
D03*
X058832D01*
D03*
X056588Y013969D02*
X056942D01*
X056588D03*
X056942D01*
D03*
Y014638D02*
X056588D01*
D03*
X056942D01*
D03*
Y015307D02*
X056588D01*
D03*
X056942D01*
D03*
X058478D02*
X058832D01*
X058478D03*
X058832D01*
D03*
Y014638D02*
X058478D01*
D03*
X058832D01*
D03*
Y013969D02*
X058478D01*
D03*
X058832D01*
D03*
X056588Y018969D02*
X056942D01*
X056588D03*
X056942D01*
D03*
Y019638D02*
X056588D01*
D03*
X056942D01*
D03*
Y020307D02*
X056588D01*
D03*
X056942D01*
D03*
X058478D02*
X058832D01*
X058478D03*
X058832D01*
D03*
Y019638D02*
X058478D01*
D03*
X058832D01*
D03*
Y018969D02*
X058478D01*
D03*
X058832D01*
D03*
X056588Y023969D02*
X056942D01*
X056588D03*
X056942D01*
D03*
Y024638D02*
X056588D01*
D03*
X056942D01*
D03*
Y025307D02*
X056588D01*
D03*
X056942D01*
D03*
X058478D02*
X058832D01*
X058478D03*
X058832D01*
D03*
Y024638D02*
X058478D01*
D03*
X058832D01*
D03*
Y023969D02*
X058478D01*
D03*
X058832D01*
D03*
X056588Y028969D02*
X056942D01*
X056588D03*
X056942D01*
D03*
Y029638D02*
X056588D01*
D03*
X056942D01*
D03*
Y030307D02*
X056588D01*
D03*
X056942D01*
D03*
X058478D02*
X058832D01*
X058478D03*
X058832D01*
D03*
Y029638D02*
X058478D01*
D03*
X058832D01*
D03*
Y028969D02*
X058478D01*
D03*
X058832D01*
D03*
X056588Y033969D02*
X056942D01*
X056588D03*
X056942D01*
D03*
Y034638D02*
X056588D01*
D03*
X056942D01*
D03*
Y035307D02*
X056588D01*
D03*
X056942D01*
D03*
X058478D02*
X058832D01*
X058478D03*
X058832D01*
D03*
Y034638D02*
X058478D01*
D03*
X058832D01*
D03*
Y033969D02*
X058478D01*
D03*
X058832D01*
D03*
X056588Y038969D02*
X056942D01*
X056588D03*
X056942D01*
D03*
Y039638D02*
X056588D01*
D03*
X056942D01*
D03*
Y040307D02*
X056588D01*
D03*
X056942D01*
D03*
X058478D02*
X058832D01*
X058478D03*
X058832D01*
D03*
Y039638D02*
X058478D01*
D03*
X058832D01*
D03*
Y038969D02*
X058478D01*
D03*
X058832D01*
D03*
X056588Y043969D02*
X056942D01*
X056588D03*
X056942D01*
D03*
Y044638D02*
X056588D01*
D03*
X056942D01*
D03*
Y045307D02*
X056588D01*
D03*
X056942D01*
D03*
X058478D02*
X058832D01*
X058478D03*
X058832D01*
D03*
Y044638D02*
X058478D01*
D03*
X058832D01*
D03*
Y043969D02*
X058478D01*
D03*
X058832D01*
D03*
X056588Y048969D02*
X056942D01*
X056588D03*
X056942D01*
D03*
Y049638D02*
X056588D01*
D03*
X056942D01*
D03*
Y050307D02*
X056588D01*
D03*
X056942D01*
D03*
X058478D02*
X058832D01*
X058478D03*
X058832D01*
D03*
Y049638D02*
X058478D01*
D03*
X058832D01*
D03*
Y048969D02*
X058478D01*
D03*
X058832D01*
D03*
X056588Y053969D02*
X056942D01*
X056588D03*
X056942D01*
D03*
Y054638D02*
X056588D01*
D03*
X056942D01*
D03*
Y055307D02*
X056588D01*
D03*
X056942D01*
D03*
X058478D02*
X058832D01*
X058478D03*
X058832D01*
D03*
Y054638D02*
X058478D01*
D03*
X058832D01*
D03*
Y053969D02*
X058478D01*
D03*
X058832D01*
D03*
X056588Y058969D02*
X056942D01*
X056588D03*
X056942D01*
D03*
Y059638D02*
X056588D01*
D03*
X056942D01*
D03*
Y060307D02*
X056588D01*
D03*
X056942D01*
D03*
X058478D02*
X058832D01*
X058478D03*
X058832D01*
D03*
Y059638D02*
X058478D01*
D03*
X058832D01*
D03*
Y058969D02*
X058478D01*
D03*
X058832D01*
D03*
X056588Y063969D02*
X056942D01*
X056588D03*
X056942D01*
D03*
Y064638D02*
X056588D01*
D03*
X056942D01*
D03*
Y065307D02*
X056588D01*
D03*
X056942D01*
D03*
X058478D02*
X058832D01*
X058478D03*
X058832D01*
D03*
Y064638D02*
X058478D01*
D03*
X058832D01*
D03*
Y063969D02*
X058478D01*
D03*
X058832D01*
D03*
X056588Y068969D02*
X056942D01*
X056588D03*
X056942D01*
D03*
Y069638D02*
X056588D01*
D03*
X056942D01*
D03*
Y070307D02*
X056588D01*
D03*
X056942D01*
D03*
X058478D02*
X058832D01*
X058478D03*
X058832D01*
D03*
Y069638D02*
X058478D01*
D03*
X058832D01*
D03*
Y068969D02*
X058478D01*
D03*
X058832D01*
D03*
X064218Y003969D02*
X064572D01*
X064218D03*
X064572D01*
D03*
Y004638D02*
X064218D01*
D03*
X064572D01*
D03*
Y005307D02*
X064218D01*
D03*
X064572D01*
D03*
X066108D02*
X066462D01*
X066108D03*
X066462D01*
D03*
Y004638D02*
X066108D01*
D03*
X066462D01*
D03*
Y003969D02*
X066108D01*
D03*
X066462D01*
D03*
X064218Y008969D02*
X064572D01*
X064218D03*
X064572D01*
D03*
Y009638D02*
X064218D01*
D03*
X064572D01*
D03*
Y010307D02*
X064218D01*
D03*
X064572D01*
D03*
X066108D02*
X066462D01*
X066108D03*
X066462D01*
D03*
Y009638D02*
X066108D01*
D03*
X066462D01*
D03*
Y008969D02*
X066108D01*
D03*
X066462D01*
D03*
X064218Y013969D02*
X064572D01*
X064218D03*
X064572D01*
D03*
Y014638D02*
X064218D01*
D03*
X064572D01*
D03*
Y015307D02*
X064218D01*
D03*
X064572D01*
D03*
X066108D02*
X066462D01*
X066108D03*
X066462D01*
D03*
Y014638D02*
X066108D01*
D03*
X066462D01*
D03*
Y013969D02*
X066108D01*
D03*
X066462D01*
D03*
X064218Y018969D02*
X064572D01*
X064218D03*
X064572D01*
D03*
Y019638D02*
X064218D01*
D03*
X064572D01*
D03*
Y020307D02*
X064218D01*
D03*
X064572D01*
D03*
X066108D02*
X066462D01*
X066108D03*
X066462D01*
D03*
Y019638D02*
X066108D01*
D03*
X066462D01*
D03*
Y018969D02*
X066108D01*
D03*
X066462D01*
D03*
X064218Y023969D02*
X064572D01*
X064218D03*
X064572D01*
D03*
Y024638D02*
X064218D01*
D03*
X064572D01*
D03*
Y025307D02*
X064218D01*
D03*
X064572D01*
D03*
X066108D02*
X066462D01*
X066108D03*
X066462D01*
D03*
Y024638D02*
X066108D01*
D03*
X066462D01*
D03*
Y023969D02*
X066108D01*
D03*
X066462D01*
D03*
X064218Y028969D02*
X064572D01*
X064218D03*
X064572D01*
D03*
Y029638D02*
X064218D01*
D03*
X064572D01*
D03*
Y030307D02*
X064218D01*
D03*
X064572D01*
D03*
X066108D02*
X066462D01*
X066108D03*
X066462D01*
D03*
Y029638D02*
X066108D01*
D03*
X066462D01*
D03*
Y028969D02*
X066108D01*
D03*
X066462D01*
D03*
X064218Y033969D02*
X064572D01*
X064218D03*
X064572D01*
D03*
Y034638D02*
X064218D01*
D03*
X064572D01*
D03*
Y035307D02*
X064218D01*
D03*
X064572D01*
D03*
X066108D02*
X066462D01*
X066108D03*
X066462D01*
D03*
Y034638D02*
X066108D01*
D03*
X066462D01*
D03*
Y033969D02*
X066108D01*
D03*
X066462D01*
D03*
X064218Y038969D02*
X064572D01*
X064218D03*
X064572D01*
D03*
Y039638D02*
X064218D01*
D03*
X064572D01*
D03*
Y040307D02*
X064218D01*
D03*
X064572D01*
D03*
X066108D02*
X066462D01*
X066108D03*
X066462D01*
D03*
Y039638D02*
X066108D01*
D03*
X066462D01*
D03*
Y038969D02*
X066108D01*
D03*
X066462D01*
D03*
X064218Y043969D02*
X064572D01*
X064218D03*
X064572D01*
D03*
Y044638D02*
X064218D01*
D03*
X064572D01*
D03*
Y045307D02*
X064218D01*
D03*
X064572D01*
D03*
X066108D02*
X066462D01*
X066108D03*
X066462D01*
D03*
Y044638D02*
X066108D01*
D03*
X066462D01*
D03*
Y043969D02*
X066108D01*
D03*
X066462D01*
D03*
X064218Y048969D02*
X064572D01*
X064218D03*
X064572D01*
D03*
Y049638D02*
X064218D01*
D03*
X064572D01*
D03*
Y050307D02*
X064218D01*
D03*
X064572D01*
D03*
X066108D02*
X066462D01*
X066108D03*
X066462D01*
D03*
Y049638D02*
X066108D01*
D03*
X066462D01*
D03*
Y048969D02*
X066108D01*
D03*
X066462D01*
D03*
X064218Y053969D02*
X064572D01*
X064218D03*
X064572D01*
D03*
Y054638D02*
X064218D01*
D03*
X064572D01*
D03*
Y055307D02*
X064218D01*
D03*
X064572D01*
D03*
X066108D02*
X066462D01*
X066108D03*
X066462D01*
D03*
Y054638D02*
X066108D01*
D03*
X066462D01*
D03*
Y053969D02*
X066108D01*
D03*
X066462D01*
D03*
X064218Y058969D02*
X064572D01*
X064218D03*
X064572D01*
D03*
Y059638D02*
X064218D01*
D03*
X064572D01*
D03*
Y060307D02*
X064218D01*
D03*
X064572D01*
D03*
X066108D02*
X066462D01*
X066108D03*
X066462D01*
D03*
Y059638D02*
X066108D01*
D03*
X066462D01*
D03*
Y058969D02*
X066108D01*
D03*
X066462D01*
D03*
X064218Y063969D02*
X064572D01*
X064218D03*
X064572D01*
D03*
Y064638D02*
X064218D01*
D03*
X064572D01*
D03*
Y065307D02*
X064218D01*
D03*
X064572D01*
D03*
X066108D02*
X066462D01*
X066108D03*
X066462D01*
D03*
Y064638D02*
X066108D01*
D03*
X066462D01*
D03*
Y063969D02*
X066108D01*
D03*
X066462D01*
D03*
X064218Y068969D02*
X064572D01*
X064218D03*
X064572D01*
D03*
Y069638D02*
X064218D01*
D03*
X064572D01*
D03*
Y070307D02*
X064218D01*
D03*
X064572D01*
D03*
X066108D02*
X066462D01*
X066108D03*
X066462D01*
D03*
Y069638D02*
X066108D01*
D03*
X066462D01*
D03*
Y068969D02*
X066108D01*
D03*
X066462D01*
D03*
G54D11*
X063652Y000888D03*
Y073388D03*
X005987D03*
Y000888D03*
M02*
