%
M48
M72
T01C0.03200
T02C0.03346
T03C0.04000
T04C0.04331
%
T01
X75921Y52000
X85921Y52000
X95921Y52000
X105921Y52000
X115921Y52000
X125921Y52000
X135921Y52000
X145921Y52000
X155921Y52000
X165921Y52000
X175921Y52000
X185921Y52000
X195921Y52000
X205921Y52000
X230921Y44500
X240921Y39500
X230921Y34500
X240921Y29500
X205921Y82000
X195921Y82000
X185921Y82000
X175921Y82000
X165921Y82000
X155921Y82000
X145921Y82000
X135921Y82000
X125921Y82000
X115921Y82000
X105921Y82000
X95921Y82000
X85921Y82000
X75921Y82000
T02
X37421Y26315
X37421Y46000
T03
X49921Y33000
X59921Y33000
X85921Y33000
X95921Y33000
T04
X36315Y65110
X36315Y78890
X184032Y21606
X197811Y21606
X235528Y65110
X235528Y78890
M30
